<svg xmlns="http://www.w3.org/2000/svg" xmlns:xlink="http://www.w3.org/1999/xlink" width="940" zoomAndPan="magnify" viewBox="0 0 705 591.000005" height="788" preserveAspectRatio="xMidYMid meet" version="1.0"><defs><g/><clipPath id="ac711f6dc2"><path d="M 0.59375 0 L 704.402344 0 L 704.402344 590 L 0.59375 590 Z M 0.59375 0 " clip-rule="nonzero"/></clipPath></defs><g clip-path="url(#ac711f6dc2)"><path fill="#ffffff" d="M 0.59375 0 L 704.40625 0 L 704.40625 590 L 0.59375 590 Z M 0.59375 0 " fill-opacity="1" fill-rule="nonzero"/><path fill="#fed400" d="M 0.59375 0 L 704.40625 0 L 704.40625 590 L 0.59375 590 Z M 0.59375 0 " fill-opacity="1" fill-rule="nonzero"/></g><g fill="#000000" fill-opacity="1"><g transform="translate(169.309949, 264.52485)"><g><path d="M 6.078125 -34.640625 L 6.078125 -42 C 6.117188 -47.175781 7.332031 -51.316406 9.71875 -54.421875 C 12.101562 -57.535156 15.414062 -59.09375 19.65625 -59.09375 C 21.457031 -59.09375 23.175781 -58.832031 24.8125 -58.3125 C 26.457031 -57.789062 27.640625 -57.257812 28.359375 -56.71875 L 29.515625 -55.984375 L 25.328125 -47.546875 C 24.242188 -48.171875 23.050781 -48.484375 21.75 -48.484375 C 20.257812 -48.484375 19.265625 -47.976562 18.765625 -46.96875 C 18.273438 -45.957031 18.03125 -44.191406 18.03125 -41.671875 L 18.03125 -34.640625 L 26 -34.640625 L 26 -25.53125 L 18.03125 -25.53125 L 18.03125 0 L 6.078125 0 L 6.078125 -25.53125 L 1.078125 -25.53125 L 1.078125 -34.640625 Z M 6.078125 -34.640625 "/></g></g></g><g fill="#000000" fill-opacity="1"><g transform="translate(193.958053, 264.52485)"><g><path d="M 5.203125 -53.953125 C 6.597656 -55.347656 8.257812 -56.046875 10.1875 -56.046875 C 12.125 -56.046875 13.789062 -55.347656 15.1875 -53.953125 C 16.582031 -52.554688 17.28125 -50.890625 17.28125 -48.953125 C 17.28125 -47.023438 16.582031 -45.363281 15.1875 -43.96875 C 13.789062 -42.570312 12.125 -41.875 10.1875 -41.875 C 8.257812 -41.875 6.597656 -42.570312 5.203125 -43.96875 C 3.804688 -45.363281 3.109375 -47.023438 3.109375 -48.953125 C 3.109375 -50.890625 3.804688 -52.554688 5.203125 -53.953125 Z M 4.046875 -34.640625 L 4.046875 0 L 16 0 L 16 -34.640625 Z M 4.046875 -34.640625 "/></g></g></g><g fill="#000000" fill-opacity="1"><g transform="translate(213.676514, 264.52485)"><g><path d="M 4.046875 0 L 4.046875 -34.640625 L 16 -34.640625 L 16 -31 L 16.140625 -31 C 19.242188 -34.101562 22.550781 -35.65625 26.0625 -35.65625 C 27.78125 -35.65625 29.484375 -35.429688 31.171875 -34.984375 C 32.859375 -34.535156 34.476562 -33.835938 36.03125 -32.890625 C 37.582031 -31.941406 38.84375 -30.597656 39.8125 -28.859375 C 40.78125 -27.128906 41.265625 -25.117188 41.265625 -22.828125 L 41.265625 0 L 29.3125 0 L 29.3125 -19.578125 C 29.3125 -21.378906 28.734375 -22.957031 27.578125 -24.3125 C 26.429688 -25.664062 24.9375 -26.34375 23.09375 -26.34375 C 21.289062 -26.34375 19.65625 -25.644531 18.1875 -24.25 C 16.726562 -22.851562 16 -21.296875 16 -19.578125 L 16 0 Z M 4.046875 0 "/></g></g></g><g fill="#000000" fill-opacity="1"><g transform="translate(257.638015, 264.52485)"><g><path d="M 6.40625 -4.28125 C 3.164062 -7.820312 1.546875 -12.15625 1.546875 -17.28125 C 1.546875 -22.414062 3.164062 -26.757812 6.40625 -30.3125 C 9.65625 -33.875 13.78125 -35.65625 18.78125 -35.65625 C 23.363281 -35.65625 27.144531 -34.210938 30.125 -31.328125 L 30.125 -34.640625 L 42.078125 -34.640625 L 42.078125 0 L 30.25 0 L 30.25 -3.921875 L 30.125 -3.921875 C 27.144531 -0.628906 23.363281 1.015625 18.78125 1.015625 C 13.78125 1.015625 9.65625 -0.75 6.40625 -4.28125 Z M 16.578125 -23.15625 C 15.023438 -21.625 14.25 -19.664062 14.25 -17.28125 C 14.25 -14.894531 14.988281 -12.945312 16.46875 -11.4375 C 17.957031 -9.9375 19.921875 -9.1875 22.359375 -9.1875 C 24.691406 -9.1875 26.613281 -9.953125 28.125 -11.484375 C 29.632812 -13.015625 30.390625 -14.945312 30.390625 -17.28125 C 30.390625 -19.664062 29.613281 -21.625 28.0625 -23.15625 C 26.507812 -24.6875 24.609375 -25.453125 22.359375 -25.453125 C 20.054688 -25.453125 18.128906 -24.6875 16.578125 -23.15625 Z M 16.578125 -23.15625 "/></g></g></g><g fill="#000000" fill-opacity="1"><g transform="translate(303.085147, 264.52485)"><g><path d="M 4.046875 0 L 4.046875 -34.640625 L 16 -34.640625 L 16 -31 L 16.140625 -31 C 19.242188 -34.101562 22.550781 -35.65625 26.0625 -35.65625 C 27.78125 -35.65625 29.484375 -35.429688 31.171875 -34.984375 C 32.859375 -34.535156 34.476562 -33.835938 36.03125 -32.890625 C 37.582031 -31.941406 38.84375 -30.597656 39.8125 -28.859375 C 40.78125 -27.128906 41.265625 -25.117188 41.265625 -22.828125 L 41.265625 0 L 29.3125 0 L 29.3125 -19.578125 C 29.3125 -21.378906 28.734375 -22.957031 27.578125 -24.3125 C 26.429688 -25.664062 24.9375 -26.34375 23.09375 -26.34375 C 21.289062 -26.34375 19.65625 -25.644531 18.1875 -24.25 C 16.726562 -22.851562 16 -21.296875 16 -19.578125 L 16 0 Z M 4.046875 0 "/></g></g></g><g fill="#000000" fill-opacity="1"><g transform="translate(347.046642, 264.52485)"><g><path d="M 22.484375 -25.859375 C 20.234375 -25.859375 18.296875 -25.023438 16.671875 -23.359375 C 15.054688 -21.691406 14.25 -19.691406 14.25 -17.359375 C 14.25 -14.972656 15.054688 -12.945312 16.671875 -11.28125 C 18.296875 -9.613281 20.234375 -8.78125 22.484375 -8.78125 C 23.566406 -8.78125 24.59375 -8.914062 25.5625 -9.1875 C 26.53125 -9.457031 27.238281 -9.726562 27.6875 -10 L 28.296875 -10.40625 L 32.34375 -2.09375 C 32.03125 -1.863281 31.59375 -1.582031 31.03125 -1.25 C 30.46875 -0.914062 29.179688 -0.457031 27.171875 0.125 C 25.171875 0.71875 23.023438 1.015625 20.734375 1.015625 C 15.640625 1.015625 11.164062 -0.769531 7.3125 -4.34375 C 3.46875 -7.925781 1.546875 -12.21875 1.546875 -17.21875 C 1.546875 -22.257812 3.46875 -26.59375 7.3125 -30.21875 C 11.164062 -33.84375 15.640625 -35.65625 20.734375 -35.65625 C 23.023438 -35.65625 25.140625 -35.382812 27.078125 -34.84375 C 29.015625 -34.300781 30.390625 -33.757812 31.203125 -33.21875 L 32.34375 -32.421875 L 28.296875 -24.25 C 26.804688 -25.320312 24.867188 -25.859375 22.484375 -25.859375 Z M 22.484375 -25.859375 "/></g></g></g><g fill="#000000" fill-opacity="1"><g transform="translate(379.528141, 264.52485)"><g><path d="M 5.203125 -53.953125 C 6.597656 -55.347656 8.257812 -56.046875 10.1875 -56.046875 C 12.125 -56.046875 13.789062 -55.347656 15.1875 -53.953125 C 16.582031 -52.554688 17.28125 -50.890625 17.28125 -48.953125 C 17.28125 -47.023438 16.582031 -45.363281 15.1875 -43.96875 C 13.789062 -42.570312 12.125 -41.875 10.1875 -41.875 C 8.257812 -41.875 6.597656 -42.570312 5.203125 -43.96875 C 3.804688 -45.363281 3.109375 -47.023438 3.109375 -48.953125 C 3.109375 -50.890625 3.804688 -52.554688 5.203125 -53.953125 Z M 4.046875 -34.640625 L 4.046875 0 L 16 0 L 16 -34.640625 Z M 4.046875 -34.640625 "/></g></g></g><g fill="#000000" fill-opacity="1"><g transform="translate(399.246601, 264.52485)"><g><path d="M 4.046875 0 L 4.046875 -34.640625 L 16 -34.640625 L 16 -31 L 16.140625 -31 C 19.242188 -34.101562 22.550781 -35.65625 26.0625 -35.65625 C 27.78125 -35.65625 29.484375 -35.429688 31.171875 -34.984375 C 32.859375 -34.535156 34.476562 -33.835938 36.03125 -32.890625 C 37.582031 -31.941406 38.84375 -30.597656 39.8125 -28.859375 C 40.78125 -27.128906 41.265625 -25.117188 41.265625 -22.828125 L 41.265625 0 L 29.3125 0 L 29.3125 -19.578125 C 29.3125 -21.378906 28.734375 -22.957031 27.578125 -24.3125 C 26.429688 -25.664062 24.9375 -26.34375 23.09375 -26.34375 C 21.289062 -26.34375 19.65625 -25.644531 18.1875 -24.25 C 16.726562 -22.851562 16 -21.296875 16 -19.578125 L 16 0 Z M 4.046875 0 "/></g></g></g><g fill="#000000" fill-opacity="1"><g transform="translate(443.208096, 264.52485)"><g><path d="M 2.5 8.515625 L 12.296875 3.71875 C 14.085938 6.6875 17.210938 8.171875 21.671875 8.171875 C 23.742188 8.171875 25.671875 7.503906 27.453125 6.171875 C 29.234375 4.847656 30.125 2.8125 30.125 0.0625 L 30.125 -2.5 C 28 -0.15625 24.21875 1.015625 18.78125 1.015625 C 13.78125 1.015625 9.65625 -0.75 6.40625 -4.28125 C 3.164062 -7.820312 1.546875 -12.15625 1.546875 -17.28125 C 1.546875 -22.414062 3.164062 -26.757812 6.40625 -30.3125 C 9.65625 -33.875 13.78125 -35.65625 18.78125 -35.65625 C 23.226562 -35.65625 26.941406 -34.28125 29.921875 -31.53125 L 30.125 -31.53125 L 30.125 -34.640625 L 42.078125 -34.640625 L 42.078125 0.953125 C 42.078125 6.578125 40.207031 10.921875 36.46875 13.984375 C 32.726562 17.046875 27.796875 18.578125 21.671875 18.578125 C 11.773438 18.578125 5.382812 15.222656 2.5 8.515625 Z M 16.578125 -23.15625 C 15.023438 -21.625 14.25 -19.664062 14.25 -17.28125 C 14.25 -14.894531 14.988281 -12.945312 16.46875 -11.4375 C 17.957031 -9.9375 19.921875 -9.1875 22.359375 -9.1875 C 24.691406 -9.1875 26.613281 -9.953125 28.125 -11.484375 C 29.632812 -13.015625 30.390625 -14.945312 30.390625 -17.28125 C 30.390625 -19.664062 29.613281 -21.625 28.0625 -23.15625 C 26.507812 -24.6875 24.609375 -25.453125 22.359375 -25.453125 C 20.054688 -25.453125 18.128906 -24.6875 16.578125 -23.15625 Z M 16.578125 -23.15625 "/></g></g></g><g fill="#000000" fill-opacity="1"><g transform="translate(169.309949, 328.641359)"><g><path d="M 4.046875 0 L 4.046875 -34.640625 L 16 -34.640625 L 16 -31 L 16.140625 -31 C 19.242188 -34.101562 22.550781 -35.65625 26.0625 -35.65625 C 28.582031 -35.65625 30.945312 -35.132812 33.15625 -34.09375 C 35.363281 -33.0625 37.03125 -31.46875 38.15625 -29.3125 C 41.664062 -33.539062 45.492188 -35.65625 49.640625 -35.65625 C 53.328125 -35.65625 56.5 -34.617188 59.15625 -32.546875 C 61.8125 -30.472656 63.140625 -27.234375 63.140625 -22.828125 L 63.140625 0 L 51.1875 0 L 51.1875 -19.578125 C 51.1875 -21.429688 50.679688 -22.972656 49.671875 -24.203125 C 48.660156 -25.441406 47.140625 -26.0625 45.109375 -26.0625 C 43.359375 -26.0625 42.019531 -25.53125 41.09375 -24.46875 C 40.164062 -23.414062 39.660156 -22.148438 39.578125 -20.671875 L 39.578125 0 L 27.625 0 L 27.625 -19.578125 C 27.625 -21.429688 27.113281 -22.972656 26.09375 -24.203125 C 25.082031 -25.441406 23.566406 -26.0625 21.546875 -26.0625 C 19.703125 -26.0625 18.316406 -25.488281 17.390625 -24.34375 C 16.460938 -23.195312 16 -21.835938 16 -20.265625 L 16 0 Z M 4.046875 0 "/></g></g></g><g fill="#000000" fill-opacity="1"><g transform="translate(235.150944, 328.641359)"><g><path d="M 5.203125 -53.953125 C 6.597656 -55.347656 8.257812 -56.046875 10.1875 -56.046875 C 12.125 -56.046875 13.789062 -55.347656 15.1875 -53.953125 C 16.582031 -52.554688 17.28125 -50.890625 17.28125 -48.953125 C 17.28125 -47.023438 16.582031 -45.363281 15.1875 -43.96875 C 13.789062 -42.570312 12.125 -41.875 10.1875 -41.875 C 8.257812 -41.875 6.597656 -42.570312 5.203125 -43.96875 C 3.804688 -45.363281 3.109375 -47.023438 3.109375 -48.953125 C 3.109375 -50.890625 3.804688 -52.554688 5.203125 -53.953125 Z M 4.046875 -34.640625 L 4.046875 0 L 16 0 L 16 -34.640625 Z M 4.046875 -34.640625 "/></g></g></g><g fill="#000000" fill-opacity="1"><g transform="translate(254.869408, 328.641359)"><g><path d="M 4.046875 0 L 4.046875 -58.078125 L 16 -58.078125 L 16 0 Z M 4.046875 0 "/></g></g></g><g fill="#000000" fill-opacity="1"><g transform="translate(274.250222, 328.641359)"><g><path d="M 39.09375 -15.671875 L 13.984375 -15.671875 C 13.984375 -13.234375 14.769531 -11.429688 16.34375 -10.265625 C 17.914062 -9.097656 19.625 -8.515625 21.46875 -8.515625 C 23.40625 -8.515625 24.9375 -8.769531 26.0625 -9.28125 C 27.1875 -9.800781 28.472656 -10.828125 29.921875 -12.359375 L 38.5625 -8.03125 C 34.957031 -2 28.96875 1.015625 20.59375 1.015625 C 15.375 1.015625 10.894531 -0.769531 7.15625 -4.34375 C 3.414062 -7.925781 1.546875 -12.238281 1.546875 -17.28125 C 1.546875 -22.320312 3.414062 -26.644531 7.15625 -30.25 C 10.894531 -33.851562 15.375 -35.65625 20.59375 -35.65625 C 26.082031 -35.65625 30.550781 -34.066406 34 -30.890625 C 37.445312 -27.722656 39.171875 -23.1875 39.171875 -17.28125 C 39.171875 -16.476562 39.144531 -15.941406 39.09375 -15.671875 Z M 14.3125 -22.28125 L 27.484375 -22.28125 C 27.210938 -24.082031 26.503906 -25.46875 25.359375 -26.4375 C 24.210938 -27.40625 22.738281 -27.890625 20.9375 -27.890625 C 18.957031 -27.890625 17.378906 -27.367188 16.203125 -26.328125 C 15.035156 -25.296875 14.40625 -23.945312 14.3125 -22.28125 Z M 14.3125 -22.28125 "/></g></g></g><g fill="#000000" fill-opacity="1"><g transform="translate(314.295012, 328.641359)"><g><path d="M 19.109375 -35.65625 C 21.085938 -35.65625 23.046875 -35.429688 24.984375 -34.984375 C 26.921875 -34.535156 28.363281 -34.082031 29.3125 -33.625 L 30.734375 -32.953125 L 26.8125 -25.125 C 24.113281 -26.5625 21.546875 -27.28125 19.109375 -27.28125 C 17.753906 -27.28125 16.796875 -27.132812 16.234375 -26.84375 C 15.671875 -26.550781 15.390625 -26 15.390625 -25.1875 C 15.390625 -25.007812 15.410156 -24.828125 15.453125 -24.640625 C 15.503906 -24.460938 15.597656 -24.296875 15.734375 -24.140625 C 15.867188 -23.984375 15.992188 -23.847656 16.109375 -23.734375 C 16.222656 -23.617188 16.410156 -23.492188 16.671875 -23.359375 C 16.941406 -23.222656 17.15625 -23.117188 17.3125 -23.046875 C 17.476562 -22.984375 17.738281 -22.882812 18.09375 -22.75 C 18.457031 -22.625 18.726562 -22.523438 18.90625 -22.453125 C 19.082031 -22.390625 19.382812 -22.289062 19.8125 -22.15625 C 20.25 -22.019531 20.578125 -21.925781 20.796875 -21.875 C 22.191406 -21.46875 23.40625 -21.015625 24.4375 -20.515625 C 25.476562 -20.023438 26.570312 -19.351562 27.71875 -18.5 C 28.863281 -17.644531 29.75 -16.5625 30.375 -15.25 C 31.007812 -13.945312 31.328125 -12.46875 31.328125 -10.8125 C 31.328125 -2.925781 25.859375 1.015625 14.921875 1.015625 C 12.441406 1.015625 10.085938 0.632812 7.859375 -0.125 C 5.640625 -0.894531 4.03125 -1.664062 3.03125 -2.4375 L 1.546875 -3.640625 L 6.421875 -11.8125 C 6.773438 -11.5 7.242188 -11.128906 7.828125 -10.703125 C 8.421875 -10.273438 9.476562 -9.6875 11 -8.9375 C 12.53125 -8.195312 13.859375 -7.828125 14.984375 -7.828125 C 17.460938 -7.828125 18.703125 -8.660156 18.703125 -10.328125 C 18.703125 -11.097656 18.382812 -11.695312 17.75 -12.125 C 17.125 -12.550781 16.054688 -13.035156 14.546875 -13.578125 C 13.046875 -14.117188 11.863281 -14.613281 11 -15.0625 C 8.84375 -16.1875 7.132812 -17.457031 5.875 -18.875 C 4.613281 -20.289062 3.984375 -22.171875 3.984375 -24.515625 C 3.984375 -28.023438 5.34375 -30.757812 8.0625 -32.71875 C 10.789062 -34.675781 14.472656 -35.65625 19.109375 -35.65625 Z M 19.109375 -35.65625 "/></g></g></g><g fill="#000000" fill-opacity="1"><g transform="translate(346.84405, 328.641359)"><g><path d="M 6.078125 -34.640625 L 6.078125 -47.546875 L 18.03125 -47.546875 L 18.03125 -34.640625 L 25.328125 -34.640625 L 25.328125 -25.53125 L 18.03125 -25.53125 L 18.03125 -14.515625 C 18.03125 -11.316406 18.929688 -9.71875 20.734375 -9.71875 C 21.179688 -9.71875 21.648438 -9.804688 22.140625 -9.984375 C 22.640625 -10.171875 23.023438 -10.351562 23.296875 -10.53125 L 23.703125 -10.8125 L 26.671875 -1.140625 C 24.109375 0.296875 21.179688 1.015625 17.890625 1.015625 C 15.640625 1.015625 13.703125 0.625 12.078125 -0.15625 C 10.460938 -0.945312 9.238281 -2.003906 8.40625 -3.328125 C 7.570312 -4.660156 6.972656 -6.054688 6.609375 -7.515625 C 6.253906 -8.984375 6.078125 -10.550781 6.078125 -12.21875 L 6.078125 -25.53125 L 1.078125 -25.53125 L 1.078125 -34.640625 Z M 6.078125 -34.640625 "/></g></g></g><g fill="#000000" fill-opacity="1"><g transform="translate(372.842744, 328.641359)"><g><path d="M 7.3125 -4.109375 C 3.46875 -7.535156 1.546875 -11.925781 1.546875 -17.28125 C 1.546875 -22.644531 3.550781 -27.046875 7.5625 -30.484375 C 11.570312 -33.929688 16.523438 -35.65625 22.421875 -35.65625 C 28.222656 -35.65625 33.113281 -33.921875 37.09375 -30.453125 C 41.082031 -26.984375 43.078125 -22.59375 43.078125 -17.28125 C 43.078125 -11.96875 41.128906 -7.585938 37.234375 -4.140625 C 33.347656 -0.703125 28.410156 1.015625 22.421875 1.015625 C 16.203125 1.015625 11.164062 -0.691406 7.3125 -4.109375 Z M 16.578125 -23.15625 C 15.023438 -21.625 14.25 -19.664062 14.25 -17.28125 C 14.25 -14.894531 14.988281 -12.945312 16.46875 -11.4375 C 17.957031 -9.9375 19.921875 -9.1875 22.359375 -9.1875 C 24.691406 -9.1875 26.613281 -9.953125 28.125 -11.484375 C 29.632812 -13.015625 30.390625 -14.945312 30.390625 -17.28125 C 30.390625 -19.664062 29.613281 -21.625 28.0625 -23.15625 C 26.507812 -24.6875 24.609375 -25.453125 22.359375 -25.453125 C 20.054688 -25.453125 18.128906 -24.6875 16.578125 -23.15625 Z M 16.578125 -23.15625 "/></g></g></g><g fill="#000000" fill-opacity="1"><g transform="translate(416.804239, 328.641359)"><g><path d="M 4.046875 0 L 4.046875 -34.640625 L 16 -34.640625 L 16 -31 L 16.140625 -31 C 19.242188 -34.101562 22.550781 -35.65625 26.0625 -35.65625 C 27.78125 -35.65625 29.484375 -35.429688 31.171875 -34.984375 C 32.859375 -34.535156 34.476562 -33.835938 36.03125 -32.890625 C 37.582031 -31.941406 38.84375 -30.597656 39.8125 -28.859375 C 40.78125 -27.128906 41.265625 -25.117188 41.265625 -22.828125 L 41.265625 0 L 29.3125 0 L 29.3125 -19.578125 C 29.3125 -21.378906 28.734375 -22.957031 27.578125 -24.3125 C 26.429688 -25.664062 24.9375 -26.34375 23.09375 -26.34375 C 21.289062 -26.34375 19.65625 -25.644531 18.1875 -24.25 C 16.726562 -22.851562 16 -21.296875 16 -19.578125 L 16 0 Z M 4.046875 0 "/></g></g></g><g fill="#000000" fill-opacity="1"><g transform="translate(460.765734, 328.641359)"><g><path d="M 39.09375 -15.671875 L 13.984375 -15.671875 C 13.984375 -13.234375 14.769531 -11.429688 16.34375 -10.265625 C 17.914062 -9.097656 19.625 -8.515625 21.46875 -8.515625 C 23.40625 -8.515625 24.9375 -8.769531 26.0625 -9.28125 C 27.1875 -9.800781 28.472656 -10.828125 29.921875 -12.359375 L 38.5625 -8.03125 C 34.957031 -2 28.96875 1.015625 20.59375 1.015625 C 15.375 1.015625 10.894531 -0.769531 7.15625 -4.34375 C 3.414062 -7.925781 1.546875 -12.238281 1.546875 -17.28125 C 1.546875 -22.320312 3.414062 -26.644531 7.15625 -30.25 C 10.894531 -33.851562 15.375 -35.65625 20.59375 -35.65625 C 26.082031 -35.65625 30.550781 -34.066406 34 -30.890625 C 37.445312 -27.722656 39.171875 -23.1875 39.171875 -17.28125 C 39.171875 -16.476562 39.144531 -15.941406 39.09375 -15.671875 Z M 14.3125 -22.28125 L 27.484375 -22.28125 C 27.210938 -24.082031 26.503906 -25.46875 25.359375 -26.4375 C 24.210938 -27.40625 22.738281 -27.890625 20.9375 -27.890625 C 18.957031 -27.890625 17.378906 -27.367188 16.203125 -26.328125 C 15.035156 -25.296875 14.40625 -23.945312 14.3125 -22.28125 Z M 14.3125 -22.28125 "/></g></g></g><g fill="#000000" fill-opacity="1"><g transform="translate(500.810535, 328.641359)"><g><path d="M 19.109375 -35.65625 C 21.085938 -35.65625 23.046875 -35.429688 24.984375 -34.984375 C 26.921875 -34.535156 28.363281 -34.082031 29.3125 -33.625 L 30.734375 -32.953125 L 26.8125 -25.125 C 24.113281 -26.5625 21.546875 -27.28125 19.109375 -27.28125 C 17.753906 -27.28125 16.796875 -27.132812 16.234375 -26.84375 C 15.671875 -26.550781 15.390625 -26 15.390625 -25.1875 C 15.390625 -25.007812 15.410156 -24.828125 15.453125 -24.640625 C 15.503906 -24.460938 15.597656 -24.296875 15.734375 -24.140625 C 15.867188 -23.984375 15.992188 -23.847656 16.109375 -23.734375 C 16.222656 -23.617188 16.410156 -23.492188 16.671875 -23.359375 C 16.941406 -23.222656 17.15625 -23.117188 17.3125 -23.046875 C 17.476562 -22.984375 17.738281 -22.882812 18.09375 -22.75 C 18.457031 -22.625 18.726562 -22.523438 18.90625 -22.453125 C 19.082031 -22.390625 19.382812 -22.289062 19.8125 -22.15625 C 20.25 -22.019531 20.578125 -21.925781 20.796875 -21.875 C 22.191406 -21.46875 23.40625 -21.015625 24.4375 -20.515625 C 25.476562 -20.023438 26.570312 -19.351562 27.71875 -18.5 C 28.863281 -17.644531 29.75 -16.5625 30.375 -15.25 C 31.007812 -13.945312 31.328125 -12.46875 31.328125 -10.8125 C 31.328125 -2.925781 25.859375 1.015625 14.921875 1.015625 C 12.441406 1.015625 10.085938 0.632812 7.859375 -0.125 C 5.640625 -0.894531 4.03125 -1.664062 3.03125 -2.4375 L 1.546875 -3.640625 L 6.421875 -11.8125 C 6.773438 -11.5 7.242188 -11.128906 7.828125 -10.703125 C 8.421875 -10.273438 9.476562 -9.6875 11 -8.9375 C 12.53125 -8.195312 13.859375 -7.828125 14.984375 -7.828125 C 17.460938 -7.828125 18.703125 -8.660156 18.703125 -10.328125 C 18.703125 -11.097656 18.382812 -11.695312 17.75 -12.125 C 17.125 -12.550781 16.054688 -13.035156 14.546875 -13.578125 C 13.046875 -14.117188 11.863281 -14.613281 11 -15.0625 C 8.84375 -16.1875 7.132812 -17.457031 5.875 -18.875 C 4.613281 -20.289062 3.984375 -22.171875 3.984375 -24.515625 C 3.984375 -28.023438 5.34375 -30.757812 8.0625 -32.71875 C 10.789062 -34.675781 14.472656 -35.65625 19.109375 -35.65625 Z M 19.109375 -35.65625 "/></g></g></g><g fill="#000000" fill-opacity="1"><g transform="translate(169.309949, 372.293485)"><g><path d="M 7.484375 -10.9375 L 2.234375 1.53125 L 0.296875 1.53125 L 5.53125 -10.9375 Z M 7.484375 -10.9375 "/></g></g></g><g fill="#000000" fill-opacity="1"><g transform="translate(177.082349, 372.293485)"><g/></g></g><g fill="#000000" fill-opacity="1"><g transform="translate(180.555123, 372.293485)"><g><path d="M 3.59375 -6.71875 C 3.96875 -6.71875 4.335938 -6.675781 4.703125 -6.59375 C 5.066406 -6.507812 5.335938 -6.421875 5.515625 -6.328125 L 5.78125 -6.203125 L 5.046875 -4.734375 C 4.535156 -5.003906 4.050781 -5.140625 3.59375 -5.140625 C 3.34375 -5.140625 3.164062 -5.109375 3.0625 -5.046875 C 2.957031 -4.992188 2.90625 -4.894531 2.90625 -4.75 C 2.90625 -4.707031 2.90625 -4.671875 2.90625 -4.640625 C 2.914062 -4.609375 2.929688 -4.578125 2.953125 -4.546875 C 2.984375 -4.515625 3.007812 -4.488281 3.03125 -4.46875 C 3.050781 -4.445312 3.085938 -4.421875 3.140625 -4.390625 C 3.191406 -4.367188 3.234375 -4.351562 3.265625 -4.34375 C 3.296875 -4.332031 3.34375 -4.3125 3.40625 -4.28125 C 3.476562 -4.257812 3.53125 -4.238281 3.5625 -4.21875 C 3.59375 -4.207031 3.648438 -4.191406 3.734375 -4.171875 C 3.816406 -4.148438 3.878906 -4.132812 3.921875 -4.125 C 4.179688 -4.039062 4.40625 -3.953125 4.59375 -3.859375 C 4.789062 -3.773438 5 -3.648438 5.21875 -3.484375 C 5.4375 -3.328125 5.601562 -3.125 5.71875 -2.875 C 5.84375 -2.625 5.90625 -2.34375 5.90625 -2.03125 C 5.90625 -0.550781 4.875 0.1875 2.8125 0.1875 C 2.34375 0.1875 1.898438 0.117188 1.484375 -0.015625 C 1.066406 -0.160156 0.765625 -0.304688 0.578125 -0.453125 L 0.296875 -0.6875 L 1.203125 -2.21875 C 1.273438 -2.164062 1.363281 -2.097656 1.46875 -2.015625 C 1.582031 -1.929688 1.78125 -1.816406 2.0625 -1.671875 C 2.351562 -1.535156 2.609375 -1.46875 2.828125 -1.46875 C 3.285156 -1.46875 3.515625 -1.628906 3.515625 -1.953125 C 3.515625 -2.085938 3.457031 -2.195312 3.34375 -2.28125 C 3.226562 -2.363281 3.023438 -2.453125 2.734375 -2.546875 C 2.453125 -2.648438 2.234375 -2.75 2.078125 -2.84375 C 1.671875 -3.050781 1.347656 -3.285156 1.109375 -3.546875 C 0.867188 -3.816406 0.75 -4.171875 0.75 -4.609375 C 0.75 -5.273438 1.003906 -5.789062 1.515625 -6.15625 C 2.035156 -6.53125 2.726562 -6.71875 3.59375 -6.71875 Z M 3.59375 -6.71875 "/></g></g></g><g fill="#000000" fill-opacity="1"><g transform="translate(186.813746, 372.293485)"><g><path d="M 1.140625 -6.53125 L 1.140625 -8.953125 L 3.390625 -8.953125 L 3.390625 -6.53125 L 4.765625 -6.53125 L 4.765625 -4.8125 L 3.390625 -4.8125 L 3.390625 -2.734375 C 3.390625 -2.128906 3.5625 -1.828125 3.90625 -1.828125 C 3.988281 -1.828125 4.078125 -1.84375 4.171875 -1.875 C 4.265625 -1.914062 4.335938 -1.953125 4.390625 -1.984375 L 4.46875 -2.03125 L 5.03125 -0.21875 C 4.539062 0.0507812 3.988281 0.1875 3.375 0.1875 C 2.945312 0.1875 2.578125 0.113281 2.265625 -0.03125 C 1.960938 -0.175781 1.734375 -0.375 1.578125 -0.625 C 1.421875 -0.875 1.304688 -1.132812 1.234375 -1.40625 C 1.171875 -1.6875 1.140625 -1.984375 1.140625 -2.296875 L 1.140625 -4.8125 L 0.203125 -4.8125 L 0.203125 -6.53125 Z M 1.140625 -6.53125 "/></g></g></g><g fill="#000000" fill-opacity="1"><g transform="translate(191.838453, 372.293485)"><g><path d="M 1.203125 -0.8125 C 0.597656 -1.476562 0.296875 -2.289062 0.296875 -3.25 C 0.296875 -4.21875 0.597656 -5.035156 1.203125 -5.703125 C 1.816406 -6.378906 2.59375 -6.71875 3.53125 -6.71875 C 4.394531 -6.71875 5.109375 -6.445312 5.671875 -5.90625 L 5.671875 -6.53125 L 7.921875 -6.53125 L 7.921875 0 L 5.703125 0 L 5.703125 -0.734375 L 5.671875 -0.734375 C 5.109375 -0.117188 4.394531 0.1875 3.53125 0.1875 C 2.59375 0.1875 1.816406 -0.144531 1.203125 -0.8125 Z M 3.125 -4.359375 C 2.832031 -4.078125 2.6875 -3.707031 2.6875 -3.25 C 2.6875 -2.800781 2.820312 -2.4375 3.09375 -2.15625 C 3.375 -1.875 3.742188 -1.734375 4.203125 -1.734375 C 4.648438 -1.734375 5.015625 -1.875 5.296875 -2.15625 C 5.578125 -2.445312 5.71875 -2.8125 5.71875 -3.25 C 5.71875 -3.707031 5.570312 -4.078125 5.28125 -4.359375 C 4.988281 -4.648438 4.628906 -4.796875 4.203125 -4.796875 C 3.773438 -4.796875 3.414062 -4.648438 3.125 -4.359375 Z M 3.125 -4.359375 "/></g></g></g><g fill="#000000" fill-opacity="1"><g transform="translate(200.526746, 372.293485)"><g><path d="M 0.46875 1.609375 L 2.3125 0.703125 C 2.65625 1.253906 3.242188 1.53125 4.078125 1.53125 C 4.472656 1.53125 4.835938 1.40625 5.171875 1.15625 C 5.503906 0.90625 5.671875 0.523438 5.671875 0.015625 L 5.671875 -0.46875 C 5.273438 -0.03125 4.5625 0.1875 3.53125 0.1875 C 2.59375 0.1875 1.816406 -0.144531 1.203125 -0.8125 C 0.597656 -1.476562 0.296875 -2.289062 0.296875 -3.25 C 0.296875 -4.21875 0.597656 -5.035156 1.203125 -5.703125 C 1.816406 -6.378906 2.59375 -6.71875 3.53125 -6.71875 C 4.375 -6.71875 5.078125 -6.457031 5.640625 -5.9375 L 5.671875 -5.9375 L 5.671875 -6.53125 L 7.921875 -6.53125 L 7.921875 0.171875 C 7.921875 1.234375 7.566406 2.050781 6.859375 2.625 C 6.160156 3.207031 5.234375 3.5 4.078125 3.5 C 2.210938 3.5 1.007812 2.867188 0.46875 1.609375 Z M 3.125 -4.359375 C 2.832031 -4.078125 2.6875 -3.707031 2.6875 -3.25 C 2.6875 -2.800781 2.820312 -2.4375 3.09375 -2.15625 C 3.375 -1.875 3.742188 -1.734375 4.203125 -1.734375 C 4.648438 -1.734375 5.015625 -1.875 5.296875 -2.15625 C 5.578125 -2.445312 5.71875 -2.8125 5.71875 -3.25 C 5.71875 -3.707031 5.570312 -4.078125 5.28125 -4.359375 C 4.988281 -4.648438 4.628906 -4.796875 4.203125 -4.796875 C 3.773438 -4.796875 3.414062 -4.648438 3.125 -4.359375 Z M 3.125 -4.359375 "/></g></g></g><g fill="#000000" fill-opacity="1"><g transform="translate(209.215038, 372.293485)"><g><path d="M 7.359375 -2.953125 L 2.625 -2.953125 C 2.625 -2.492188 2.769531 -2.15625 3.0625 -1.9375 C 3.363281 -1.71875 3.691406 -1.609375 4.046875 -1.609375 C 4.410156 -1.609375 4.695312 -1.65625 4.90625 -1.75 C 5.125 -1.84375 5.367188 -2.035156 5.640625 -2.328125 L 7.265625 -1.515625 C 6.585938 -0.378906 5.457031 0.1875 3.875 0.1875 C 2.894531 0.1875 2.050781 -0.144531 1.34375 -0.8125 C 0.644531 -1.488281 0.296875 -2.300781 0.296875 -3.25 C 0.296875 -4.207031 0.644531 -5.023438 1.34375 -5.703125 C 2.050781 -6.378906 2.894531 -6.71875 3.875 -6.71875 C 4.914062 -6.71875 5.757812 -6.414062 6.40625 -5.8125 C 7.050781 -5.21875 7.375 -4.363281 7.375 -3.25 C 7.375 -3.101562 7.367188 -3.003906 7.359375 -2.953125 Z M 2.703125 -4.203125 L 5.171875 -4.203125 C 5.117188 -4.535156 4.984375 -4.789062 4.765625 -4.96875 C 4.554688 -5.15625 4.28125 -5.25 3.9375 -5.25 C 3.570312 -5.25 3.273438 -5.148438 3.046875 -4.953125 C 2.828125 -4.765625 2.710938 -4.515625 2.703125 -4.203125 Z M 2.703125 -4.203125 "/></g></g></g><g fill="#000000" fill-opacity="1"><g transform="translate(216.885668, 372.293485)"><g><path d="M 3.59375 -6.71875 C 3.96875 -6.71875 4.335938 -6.675781 4.703125 -6.59375 C 5.066406 -6.507812 5.335938 -6.421875 5.515625 -6.328125 L 5.78125 -6.203125 L 5.046875 -4.734375 C 4.535156 -5.003906 4.050781 -5.140625 3.59375 -5.140625 C 3.34375 -5.140625 3.164062 -5.109375 3.0625 -5.046875 C 2.957031 -4.992188 2.90625 -4.894531 2.90625 -4.75 C 2.90625 -4.707031 2.90625 -4.671875 2.90625 -4.640625 C 2.914062 -4.609375 2.929688 -4.578125 2.953125 -4.546875 C 2.984375 -4.515625 3.007812 -4.488281 3.03125 -4.46875 C 3.050781 -4.445312 3.085938 -4.421875 3.140625 -4.390625 C 3.191406 -4.367188 3.234375 -4.351562 3.265625 -4.34375 C 3.296875 -4.332031 3.34375 -4.3125 3.40625 -4.28125 C 3.476562 -4.257812 3.53125 -4.238281 3.5625 -4.21875 C 3.59375 -4.207031 3.648438 -4.191406 3.734375 -4.171875 C 3.816406 -4.148438 3.878906 -4.132812 3.921875 -4.125 C 4.179688 -4.039062 4.40625 -3.953125 4.59375 -3.859375 C 4.789062 -3.773438 5 -3.648438 5.21875 -3.484375 C 5.4375 -3.328125 5.601562 -3.125 5.71875 -2.875 C 5.84375 -2.625 5.90625 -2.34375 5.90625 -2.03125 C 5.90625 -0.550781 4.875 0.1875 2.8125 0.1875 C 2.34375 0.1875 1.898438 0.117188 1.484375 -0.015625 C 1.066406 -0.160156 0.765625 -0.304688 0.578125 -0.453125 L 0.296875 -0.6875 L 1.203125 -2.21875 C 1.273438 -2.164062 1.363281 -2.097656 1.46875 -2.015625 C 1.582031 -1.929688 1.78125 -1.816406 2.0625 -1.671875 C 2.351562 -1.535156 2.609375 -1.46875 2.828125 -1.46875 C 3.285156 -1.46875 3.515625 -1.628906 3.515625 -1.953125 C 3.515625 -2.085938 3.457031 -2.195312 3.34375 -2.28125 C 3.226562 -2.363281 3.023438 -2.453125 2.734375 -2.546875 C 2.453125 -2.648438 2.234375 -2.75 2.078125 -2.84375 C 1.671875 -3.050781 1.347656 -3.285156 1.109375 -3.546875 C 0.867188 -3.816406 0.75 -4.171875 0.75 -4.609375 C 0.75 -5.273438 1.003906 -5.789062 1.515625 -6.15625 C 2.035156 -6.53125 2.726562 -6.71875 3.59375 -6.71875 Z M 3.59375 -6.71875 "/></g></g></g><g fill="#000000" fill-opacity="1"><g transform="translate(223.144291, 372.293485)"><g/></g></g><g fill="#000000" fill-opacity="1"><g transform="translate(226.617065, 372.293485)"><g><path d="M 1.375 -0.78125 C 0.65625 -1.425781 0.296875 -2.25 0.296875 -3.25 C 0.296875 -4.257812 0.671875 -5.085938 1.421875 -5.734375 C 2.179688 -6.390625 3.113281 -6.71875 4.21875 -6.71875 C 5.3125 -6.71875 6.234375 -6.390625 6.984375 -5.734375 C 7.734375 -5.078125 8.109375 -4.25 8.109375 -3.25 C 8.109375 -2.25 7.742188 -1.425781 7.015625 -0.78125 C 6.285156 -0.132812 5.351562 0.1875 4.21875 0.1875 C 3.050781 0.1875 2.101562 -0.132812 1.375 -0.78125 Z M 3.125 -4.359375 C 2.832031 -4.078125 2.6875 -3.707031 2.6875 -3.25 C 2.6875 -2.800781 2.820312 -2.4375 3.09375 -2.15625 C 3.375 -1.875 3.742188 -1.734375 4.203125 -1.734375 C 4.648438 -1.734375 5.015625 -1.875 5.296875 -2.15625 C 5.578125 -2.445312 5.71875 -2.8125 5.71875 -3.25 C 5.71875 -3.707031 5.570312 -4.078125 5.28125 -4.359375 C 4.988281 -4.648438 4.628906 -4.796875 4.203125 -4.796875 C 3.773438 -4.796875 3.414062 -4.648438 3.125 -4.359375 Z M 3.125 -4.359375 "/></g></g></g><g fill="#000000" fill-opacity="1"><g transform="translate(235.025505, 372.293485)"><g><path d="M 1.140625 -6.53125 L 1.140625 -7.90625 C 1.148438 -8.882812 1.378906 -9.664062 1.828125 -10.25 C 2.273438 -10.832031 2.898438 -11.125 3.703125 -11.125 C 4.035156 -11.125 4.359375 -11.078125 4.671875 -10.984375 C 4.984375 -10.890625 5.207031 -10.789062 5.34375 -10.6875 L 5.5625 -10.546875 L 4.765625 -8.953125 C 4.566406 -9.066406 4.34375 -9.125 4.09375 -9.125 C 3.8125 -9.125 3.625 -9.03125 3.53125 -8.84375 C 3.4375 -8.65625 3.390625 -8.320312 3.390625 -7.84375 L 3.390625 -6.53125 L 4.890625 -6.53125 L 4.890625 -4.8125 L 3.390625 -4.8125 L 3.390625 0 L 1.140625 0 L 1.140625 -4.8125 L 0.203125 -4.8125 L 0.203125 -6.53125 Z M 1.140625 -6.53125 "/></g></g></g><g fill="#000000" fill-opacity="1"><g transform="translate(239.795802, 372.293485)"><g/></g></g><g fill="#000000" fill-opacity="1"><g transform="translate(243.268576, 372.293485)"><g><path d="M 1.140625 -6.53125 L 1.140625 -7.90625 C 1.148438 -8.882812 1.378906 -9.664062 1.828125 -10.25 C 2.273438 -10.832031 2.898438 -11.125 3.703125 -11.125 C 4.035156 -11.125 4.359375 -11.078125 4.671875 -10.984375 C 4.984375 -10.890625 5.207031 -10.789062 5.34375 -10.6875 L 5.5625 -10.546875 L 4.765625 -8.953125 C 4.566406 -9.066406 4.34375 -9.125 4.09375 -9.125 C 3.8125 -9.125 3.625 -9.03125 3.53125 -8.84375 C 3.4375 -8.65625 3.390625 -8.320312 3.390625 -7.84375 L 3.390625 -6.53125 L 4.890625 -6.53125 L 4.890625 -4.8125 L 3.390625 -4.8125 L 3.390625 0 L 1.140625 0 L 1.140625 -4.8125 L 0.203125 -4.8125 L 0.203125 -6.53125 Z M 1.140625 -6.53125 "/></g></g></g><g fill="#000000" fill-opacity="1"><g transform="translate(248.038873, 372.293485)"><g><path d="M 2.890625 -6.53125 L 2.890625 -3.421875 C 2.890625 -2.773438 2.984375 -2.316406 3.171875 -2.046875 C 3.367188 -1.773438 3.703125 -1.640625 4.171875 -1.640625 C 4.640625 -1.640625 4.96875 -1.773438 5.15625 -2.046875 C 5.351562 -2.316406 5.453125 -2.773438 5.453125 -3.421875 L 5.453125 -6.53125 L 7.703125 -6.53125 L 7.703125 -2.875 C 7.703125 -1.789062 7.421875 -1.007812 6.859375 -0.53125 C 6.296875 -0.0507812 5.398438 0.1875 4.171875 0.1875 C 2.941406 0.1875 2.046875 -0.0507812 1.484375 -0.53125 C 0.921875 -1.007812 0.640625 -1.789062 0.640625 -2.875 L 0.640625 -6.53125 Z M 2.890625 -6.53125 "/></g></g></g><g fill="#000000" fill-opacity="1"><g transform="translate(256.383706, 372.293485)"><g><path d="M 0.765625 0 L 0.765625 -6.53125 L 3.015625 -6.53125 L 3.015625 -5.84375 L 3.046875 -5.84375 C 3.628906 -6.425781 4.25 -6.71875 4.90625 -6.71875 C 5.226562 -6.71875 5.546875 -6.675781 5.859375 -6.59375 C 6.179688 -6.507812 6.488281 -6.375 6.78125 -6.1875 C 7.070312 -6.007812 7.304688 -5.757812 7.484375 -5.4375 C 7.671875 -5.113281 7.765625 -4.734375 7.765625 -4.296875 L 7.765625 0 L 5.515625 0 L 5.515625 -3.6875 C 5.515625 -4.03125 5.40625 -4.328125 5.1875 -4.578125 C 4.976562 -4.828125 4.695312 -4.953125 4.34375 -4.953125 C 4.007812 -4.953125 3.703125 -4.820312 3.421875 -4.5625 C 3.148438 -4.300781 3.015625 -4.007812 3.015625 -3.6875 L 3.015625 0 Z M 0.765625 0 "/></g></g></g><g fill="#000000" fill-opacity="1"><g transform="translate(264.792146, 372.293485)"><g><path d="M 1.203125 -0.8125 C 0.597656 -1.476562 0.296875 -2.289062 0.296875 -3.25 C 0.296875 -4.21875 0.597656 -5.035156 1.203125 -5.703125 C 1.816406 -6.378906 2.59375 -6.71875 3.53125 -6.71875 C 4.394531 -6.71875 5.109375 -6.445312 5.671875 -5.90625 L 5.671875 -10.9375 L 7.921875 -10.9375 L 7.921875 0 L 5.703125 0 L 5.703125 -0.734375 L 5.671875 -0.734375 C 5.109375 -0.117188 4.394531 0.1875 3.53125 0.1875 C 2.59375 0.1875 1.816406 -0.144531 1.203125 -0.8125 Z M 3.125 -4.359375 C 2.832031 -4.078125 2.6875 -3.707031 2.6875 -3.25 C 2.6875 -2.800781 2.820312 -2.4375 3.09375 -2.15625 C 3.375 -1.875 3.742188 -1.734375 4.203125 -1.734375 C 4.648438 -1.734375 5.015625 -1.875 5.296875 -2.15625 C 5.578125 -2.445312 5.71875 -2.8125 5.71875 -3.25 C 5.71875 -3.707031 5.570312 -4.078125 5.28125 -4.359375 C 4.988281 -4.648438 4.628906 -4.796875 4.203125 -4.796875 C 3.773438 -4.796875 3.414062 -4.648438 3.125 -4.359375 Z M 3.125 -4.359375 "/></g></g></g><g fill="#000000" fill-opacity="1"><g transform="translate(273.480438, 372.293485)"><g><path d="M 0.96875 -10.15625 C 1.238281 -10.425781 1.554688 -10.5625 1.921875 -10.5625 C 2.285156 -10.5625 2.597656 -10.425781 2.859375 -10.15625 C 3.117188 -9.894531 3.25 -9.582031 3.25 -9.21875 C 3.25 -8.851562 3.117188 -8.539062 2.859375 -8.28125 C 2.597656 -8.019531 2.285156 -7.890625 1.921875 -7.890625 C 1.554688 -7.890625 1.238281 -8.019531 0.96875 -8.28125 C 0.707031 -8.539062 0.578125 -8.851562 0.578125 -9.21875 C 0.578125 -9.582031 0.707031 -9.894531 0.96875 -10.15625 Z M 0.765625 -6.53125 L 0.765625 0 L 3.015625 0 L 3.015625 -6.53125 Z M 0.765625 -6.53125 "/></g></g></g><g fill="#000000" fill-opacity="1"><g transform="translate(277.322114, 372.293485)"><g><path d="M 0.765625 0 L 0.765625 -6.53125 L 3.015625 -6.53125 L 3.015625 -5.84375 L 3.046875 -5.84375 C 3.628906 -6.425781 4.25 -6.71875 4.90625 -6.71875 C 5.226562 -6.71875 5.546875 -6.675781 5.859375 -6.59375 C 6.179688 -6.507812 6.488281 -6.375 6.78125 -6.1875 C 7.070312 -6.007812 7.304688 -5.757812 7.484375 -5.4375 C 7.671875 -5.113281 7.765625 -4.734375 7.765625 -4.296875 L 7.765625 0 L 5.515625 0 L 5.515625 -3.6875 C 5.515625 -4.03125 5.40625 -4.328125 5.1875 -4.578125 C 4.976562 -4.828125 4.695312 -4.953125 4.34375 -4.953125 C 4.007812 -4.953125 3.703125 -4.820312 3.421875 -4.5625 C 3.148438 -4.300781 3.015625 -4.007812 3.015625 -3.6875 L 3.015625 0 Z M 0.765625 0 "/></g></g></g><g fill="#000000" fill-opacity="1"><g transform="translate(285.730554, 372.293485)"><g><path d="M 0.46875 1.609375 L 2.3125 0.703125 C 2.65625 1.253906 3.242188 1.53125 4.078125 1.53125 C 4.472656 1.53125 4.835938 1.40625 5.171875 1.15625 C 5.503906 0.90625 5.671875 0.523438 5.671875 0.015625 L 5.671875 -0.46875 C 5.273438 -0.03125 4.5625 0.1875 3.53125 0.1875 C 2.59375 0.1875 1.816406 -0.144531 1.203125 -0.8125 C 0.597656 -1.476562 0.296875 -2.289062 0.296875 -3.25 C 0.296875 -4.21875 0.597656 -5.035156 1.203125 -5.703125 C 1.816406 -6.378906 2.59375 -6.71875 3.53125 -6.71875 C 4.375 -6.71875 5.078125 -6.457031 5.640625 -5.9375 L 5.671875 -5.9375 L 5.671875 -6.53125 L 7.921875 -6.53125 L 7.921875 0.171875 C 7.921875 1.234375 7.566406 2.050781 6.859375 2.625 C 6.160156 3.207031 5.234375 3.5 4.078125 3.5 C 2.210938 3.5 1.007812 2.867188 0.46875 1.609375 Z M 3.125 -4.359375 C 2.832031 -4.078125 2.6875 -3.707031 2.6875 -3.25 C 2.6875 -2.800781 2.820312 -2.4375 3.09375 -2.15625 C 3.375 -1.875 3.742188 -1.734375 4.203125 -1.734375 C 4.648438 -1.734375 5.015625 -1.875 5.296875 -2.15625 C 5.578125 -2.445312 5.71875 -2.8125 5.71875 -3.25 C 5.71875 -3.707031 5.570312 -4.078125 5.28125 -4.359375 C 4.988281 -4.648438 4.628906 -4.796875 4.203125 -4.796875 C 3.773438 -4.796875 3.414062 -4.648438 3.125 -4.359375 Z M 3.125 -4.359375 "/></g></g></g><g fill="#000000" fill-opacity="1"><g transform="translate(294.418846, 372.293485)"><g/></g></g><g fill="#000000" fill-opacity="1"><g transform="translate(297.89162, 372.293485)"><g><path d="M 0.96875 -10.15625 C 1.238281 -10.425781 1.554688 -10.5625 1.921875 -10.5625 C 2.285156 -10.5625 2.597656 -10.425781 2.859375 -10.15625 C 3.117188 -9.894531 3.25 -9.582031 3.25 -9.21875 C 3.25 -8.851562 3.117188 -8.539062 2.859375 -8.28125 C 2.597656 -8.019531 2.285156 -7.890625 1.921875 -7.890625 C 1.554688 -7.890625 1.238281 -8.019531 0.96875 -8.28125 C 0.707031 -8.539062 0.578125 -8.851562 0.578125 -9.21875 C 0.578125 -9.582031 0.707031 -9.894531 0.96875 -10.15625 Z M 0.765625 -6.53125 L 0.765625 0 L 3.015625 0 L 3.015625 -6.53125 Z M 0.765625 -6.53125 "/></g></g></g><g fill="#000000" fill-opacity="1"><g transform="translate(301.733303, 372.293485)"><g><path d="M 0.765625 0 L 0.765625 -6.53125 L 3.015625 -6.53125 L 3.015625 -5.84375 L 3.046875 -5.84375 C 3.628906 -6.425781 4.25 -6.71875 4.90625 -6.71875 C 5.226562 -6.71875 5.546875 -6.675781 5.859375 -6.59375 C 6.179688 -6.507812 6.488281 -6.375 6.78125 -6.1875 C 7.070312 -6.007812 7.304688 -5.757812 7.484375 -5.4375 C 7.671875 -5.113281 7.765625 -4.734375 7.765625 -4.296875 L 7.765625 0 L 5.515625 0 L 5.515625 -3.6875 C 5.515625 -4.03125 5.40625 -4.328125 5.1875 -4.578125 C 4.976562 -4.828125 4.695312 -4.953125 4.34375 -4.953125 C 4.007812 -4.953125 3.703125 -4.820312 3.421875 -4.5625 C 3.148438 -4.300781 3.015625 -4.007812 3.015625 -3.6875 L 3.015625 0 Z M 0.765625 0 "/></g></g></g><g fill="#000000" fill-opacity="1"><g transform="translate(310.141743, 372.293485)"><g/></g></g><g fill="#000000" fill-opacity="1"><g transform="translate(313.614517, 372.293485)"><g><path d="M 1.203125 -0.8125 C 0.597656 -1.476562 0.296875 -2.289062 0.296875 -3.25 C 0.296875 -4.21875 0.597656 -5.035156 1.203125 -5.703125 C 1.816406 -6.378906 2.59375 -6.71875 3.53125 -6.71875 C 4.394531 -6.71875 5.109375 -6.445312 5.671875 -5.90625 L 5.671875 -6.53125 L 7.921875 -6.53125 L 7.921875 0 L 5.703125 0 L 5.703125 -0.734375 L 5.671875 -0.734375 C 5.109375 -0.117188 4.394531 0.1875 3.53125 0.1875 C 2.59375 0.1875 1.816406 -0.144531 1.203125 -0.8125 Z M 3.125 -4.359375 C 2.832031 -4.078125 2.6875 -3.707031 2.6875 -3.25 C 2.6875 -2.800781 2.820312 -2.4375 3.09375 -2.15625 C 3.375 -1.875 3.742188 -1.734375 4.203125 -1.734375 C 4.648438 -1.734375 5.015625 -1.875 5.296875 -2.15625 C 5.578125 -2.445312 5.71875 -2.8125 5.71875 -3.25 C 5.71875 -3.707031 5.570312 -4.078125 5.28125 -4.359375 C 4.988281 -4.648438 4.628906 -4.796875 4.203125 -4.796875 C 3.773438 -4.796875 3.414062 -4.648438 3.125 -4.359375 Z M 3.125 -4.359375 "/></g></g></g><g fill="#000000" fill-opacity="1"><g transform="translate(322.302809, 372.293485)"><g/></g></g><g fill="#000000" fill-opacity="1"><g transform="translate(325.775583, 372.293485)"><g><path d="M 3.59375 -6.71875 C 3.96875 -6.71875 4.335938 -6.675781 4.703125 -6.59375 C 5.066406 -6.507812 5.335938 -6.421875 5.515625 -6.328125 L 5.78125 -6.203125 L 5.046875 -4.734375 C 4.535156 -5.003906 4.050781 -5.140625 3.59375 -5.140625 C 3.34375 -5.140625 3.164062 -5.109375 3.0625 -5.046875 C 2.957031 -4.992188 2.90625 -4.894531 2.90625 -4.75 C 2.90625 -4.707031 2.90625 -4.671875 2.90625 -4.640625 C 2.914062 -4.609375 2.929688 -4.578125 2.953125 -4.546875 C 2.984375 -4.515625 3.007812 -4.488281 3.03125 -4.46875 C 3.050781 -4.445312 3.085938 -4.421875 3.140625 -4.390625 C 3.191406 -4.367188 3.234375 -4.351562 3.265625 -4.34375 C 3.296875 -4.332031 3.34375 -4.3125 3.40625 -4.28125 C 3.476562 -4.257812 3.53125 -4.238281 3.5625 -4.21875 C 3.59375 -4.207031 3.648438 -4.191406 3.734375 -4.171875 C 3.816406 -4.148438 3.878906 -4.132812 3.921875 -4.125 C 4.179688 -4.039062 4.40625 -3.953125 4.59375 -3.859375 C 4.789062 -3.773438 5 -3.648438 5.21875 -3.484375 C 5.4375 -3.328125 5.601562 -3.125 5.71875 -2.875 C 5.84375 -2.625 5.90625 -2.34375 5.90625 -2.03125 C 5.90625 -0.550781 4.875 0.1875 2.8125 0.1875 C 2.34375 0.1875 1.898438 0.117188 1.484375 -0.015625 C 1.066406 -0.160156 0.765625 -0.304688 0.578125 -0.453125 L 0.296875 -0.6875 L 1.203125 -2.21875 C 1.273438 -2.164062 1.363281 -2.097656 1.46875 -2.015625 C 1.582031 -1.929688 1.78125 -1.816406 2.0625 -1.671875 C 2.351562 -1.535156 2.609375 -1.46875 2.828125 -1.46875 C 3.285156 -1.46875 3.515625 -1.628906 3.515625 -1.953125 C 3.515625 -2.085938 3.457031 -2.195312 3.34375 -2.28125 C 3.226562 -2.363281 3.023438 -2.453125 2.734375 -2.546875 C 2.453125 -2.648438 2.234375 -2.75 2.078125 -2.84375 C 1.671875 -3.050781 1.347656 -3.285156 1.109375 -3.546875 C 0.867188 -3.816406 0.75 -4.171875 0.75 -4.609375 C 0.75 -5.273438 1.003906 -5.789062 1.515625 -6.15625 C 2.035156 -6.53125 2.726562 -6.71875 3.59375 -6.71875 Z M 3.59375 -6.71875 "/></g></g></g><g fill="#000000" fill-opacity="1"><g transform="translate(332.034199, 372.293485)"><g><path d="M 1.140625 -6.53125 L 1.140625 -8.953125 L 3.390625 -8.953125 L 3.390625 -6.53125 L 4.765625 -6.53125 L 4.765625 -4.8125 L 3.390625 -4.8125 L 3.390625 -2.734375 C 3.390625 -2.128906 3.5625 -1.828125 3.90625 -1.828125 C 3.988281 -1.828125 4.078125 -1.84375 4.171875 -1.875 C 4.265625 -1.914062 4.335938 -1.953125 4.390625 -1.984375 L 4.46875 -2.03125 L 5.03125 -0.21875 C 4.539062 0.0507812 3.988281 0.1875 3.375 0.1875 C 2.945312 0.1875 2.578125 0.113281 2.265625 -0.03125 C 1.960938 -0.175781 1.734375 -0.375 1.578125 -0.625 C 1.421875 -0.875 1.304688 -1.132812 1.234375 -1.40625 C 1.171875 -1.6875 1.140625 -1.984375 1.140625 -2.296875 L 1.140625 -4.8125 L 0.203125 -4.8125 L 0.203125 -6.53125 Z M 1.140625 -6.53125 "/></g></g></g><g fill="#000000" fill-opacity="1"><g transform="translate(337.058906, 372.293485)"><g><path d="M 1.203125 -0.8125 C 0.597656 -1.476562 0.296875 -2.289062 0.296875 -3.25 C 0.296875 -4.21875 0.597656 -5.035156 1.203125 -5.703125 C 1.816406 -6.378906 2.59375 -6.71875 3.53125 -6.71875 C 4.394531 -6.71875 5.109375 -6.445312 5.671875 -5.90625 L 5.671875 -6.53125 L 7.921875 -6.53125 L 7.921875 0 L 5.703125 0 L 5.703125 -0.734375 L 5.671875 -0.734375 C 5.109375 -0.117188 4.394531 0.1875 3.53125 0.1875 C 2.59375 0.1875 1.816406 -0.144531 1.203125 -0.8125 Z M 3.125 -4.359375 C 2.832031 -4.078125 2.6875 -3.707031 2.6875 -3.25 C 2.6875 -2.800781 2.820312 -2.4375 3.09375 -2.15625 C 3.375 -1.875 3.742188 -1.734375 4.203125 -1.734375 C 4.648438 -1.734375 5.015625 -1.875 5.296875 -2.15625 C 5.578125 -2.445312 5.71875 -2.8125 5.71875 -3.25 C 5.71875 -3.707031 5.570312 -4.078125 5.28125 -4.359375 C 4.988281 -4.648438 4.628906 -4.796875 4.203125 -4.796875 C 3.773438 -4.796875 3.414062 -4.648438 3.125 -4.359375 Z M 3.125 -4.359375 "/></g></g></g><g fill="#000000" fill-opacity="1"><g transform="translate(345.747199, 372.293485)"><g><path d="M 0.765625 0 L 0.765625 -6.53125 L 3.015625 -6.53125 L 3.015625 -5.578125 L 3.046875 -5.578125 C 3.054688 -5.617188 3.078125 -5.660156 3.109375 -5.703125 C 3.148438 -5.753906 3.234375 -5.84375 3.359375 -5.96875 C 3.492188 -6.101562 3.632812 -6.21875 3.78125 -6.3125 C 3.925781 -6.414062 4.113281 -6.507812 4.34375 -6.59375 C 4.570312 -6.675781 4.800781 -6.71875 5.03125 -6.71875 C 5.28125 -6.71875 5.523438 -6.679688 5.765625 -6.609375 C 6.003906 -6.546875 6.175781 -6.476562 6.28125 -6.40625 L 6.46875 -6.3125 L 5.515625 -4.40625 C 5.234375 -4.632812 4.84375 -4.75 4.34375 -4.75 C 4.070312 -4.75 3.835938 -4.691406 3.640625 -4.578125 C 3.453125 -4.460938 3.316406 -4.316406 3.234375 -4.140625 C 3.148438 -3.972656 3.09375 -3.828125 3.0625 -3.703125 C 3.03125 -3.585938 3.015625 -3.5 3.015625 -3.4375 L 3.015625 0 Z M 0.765625 0 "/></g></g></g><g fill="#000000" fill-opacity="1"><g transform="translate(352.082142, 372.293485)"><g><path d="M 1.140625 -6.53125 L 1.140625 -8.953125 L 3.390625 -8.953125 L 3.390625 -6.53125 L 4.765625 -6.53125 L 4.765625 -4.8125 L 3.390625 -4.8125 L 3.390625 -2.734375 C 3.390625 -2.128906 3.5625 -1.828125 3.90625 -1.828125 C 3.988281 -1.828125 4.078125 -1.84375 4.171875 -1.875 C 4.265625 -1.914062 4.335938 -1.953125 4.390625 -1.984375 L 4.46875 -2.03125 L 5.03125 -0.21875 C 4.539062 0.0507812 3.988281 0.1875 3.375 0.1875 C 2.945312 0.1875 2.578125 0.113281 2.265625 -0.03125 C 1.960938 -0.175781 1.734375 -0.375 1.578125 -0.625 C 1.421875 -0.875 1.304688 -1.132812 1.234375 -1.40625 C 1.171875 -1.6875 1.140625 -1.984375 1.140625 -2.296875 L 1.140625 -4.8125 L 0.203125 -4.8125 L 0.203125 -6.53125 Z M 1.140625 -6.53125 "/></g></g></g><g fill="#000000" fill-opacity="1"><g transform="translate(357.106849, 372.293485)"><g><path d="M 2.890625 -6.53125 L 2.890625 -3.421875 C 2.890625 -2.773438 2.984375 -2.316406 3.171875 -2.046875 C 3.367188 -1.773438 3.703125 -1.640625 4.171875 -1.640625 C 4.640625 -1.640625 4.96875 -1.773438 5.15625 -2.046875 C 5.351562 -2.316406 5.453125 -2.773438 5.453125 -3.421875 L 5.453125 -6.53125 L 7.703125 -6.53125 L 7.703125 -2.875 C 7.703125 -1.789062 7.421875 -1.007812 6.859375 -0.53125 C 6.296875 -0.0507812 5.398438 0.1875 4.171875 0.1875 C 2.941406 0.1875 2.046875 -0.0507812 1.484375 -0.53125 C 0.921875 -1.007812 0.640625 -1.789062 0.640625 -2.875 L 0.640625 -6.53125 Z M 2.890625 -6.53125 "/></g></g></g><g fill="#000000" fill-opacity="1"><g transform="translate(365.45169, 372.293485)"><g><path d="M 7.46875 -5.71875 C 8.082031 -5.050781 8.390625 -4.234375 8.390625 -3.265625 C 8.390625 -2.296875 8.082031 -1.476562 7.46875 -0.8125 C 6.863281 -0.144531 6.09375 0.1875 5.15625 0.1875 C 4.289062 0.1875 3.578125 -0.0820312 3.015625 -0.625 L 3.015625 3.3125 L 0.765625 3.3125 L 0.765625 -6.53125 L 2.984375 -6.53125 L 2.984375 -5.78125 L 3.015625 -5.78125 C 3.578125 -6.40625 4.289062 -6.71875 5.15625 -6.71875 C 6.09375 -6.71875 6.863281 -6.382812 7.46875 -5.71875 Z M 5.5625 -2.15625 C 5.851562 -2.445312 6 -2.816406 6 -3.265625 C 6 -3.710938 5.859375 -4.078125 5.578125 -4.359375 C 5.296875 -4.648438 4.929688 -4.796875 4.484375 -4.796875 C 4.035156 -4.796875 3.671875 -4.648438 3.390625 -4.359375 C 3.109375 -4.078125 2.96875 -3.710938 2.96875 -3.265625 C 2.96875 -2.816406 3.113281 -2.445312 3.40625 -2.15625 C 3.695312 -1.875 4.054688 -1.734375 4.484375 -1.734375 C 4.910156 -1.734375 5.269531 -1.875 5.5625 -2.15625 Z M 5.5625 -2.15625 "/></g></g></g><g fill="#000000" fill-opacity="1"><g transform="translate(169.309949, 389.950535)"><g><path d="M 7.484375 -10.9375 L 2.234375 1.53125 L 0.296875 1.53125 L 5.53125 -10.9375 Z M 7.484375 -10.9375 "/></g></g></g><g fill="#000000" fill-opacity="1"><g transform="translate(177.082349, 389.950535)"><g/></g></g><g fill="#000000" fill-opacity="1"><g transform="translate(180.555123, 389.950535)"><g><path d="M 4.765625 0 L 3.25 0 L -0.25 -6.53125 L 2.34375 -6.53125 L 3.9375 -3 L 5.5 -6.53125 L 7.046875 -6.53125 L 8.609375 -3 L 10.203125 -6.53125 L 12.796875 -6.53125 L 9.296875 0 L 7.765625 0 L 6.265625 -3.375 Z M 4.765625 0 "/></g></g></g><g fill="#000000" fill-opacity="1"><g transform="translate(193.097812, 389.950535)"><g><path d="M 0.765625 0 L 0.765625 -10.9375 L 3.015625 -10.9375 L 3.015625 -5.84375 L 3.046875 -5.84375 C 3.628906 -6.425781 4.25 -6.71875 4.90625 -6.71875 C 5.226562 -6.71875 5.546875 -6.675781 5.859375 -6.59375 C 6.179688 -6.507812 6.488281 -6.375 6.78125 -6.1875 C 7.070312 -6.007812 7.304688 -5.757812 7.484375 -5.4375 C 7.671875 -5.113281 7.765625 -4.734375 7.765625 -4.296875 L 7.765625 0 L 5.515625 0 L 5.515625 -3.6875 C 5.515625 -4.03125 5.40625 -4.328125 5.1875 -4.578125 C 4.976562 -4.828125 4.695312 -4.953125 4.34375 -4.953125 C 4.007812 -4.953125 3.703125 -4.820312 3.421875 -4.5625 C 3.148438 -4.300781 3.015625 -4.007812 3.015625 -3.6875 L 3.015625 0 Z M 0.765625 0 "/></g></g></g><g fill="#000000" fill-opacity="1"><g transform="translate(201.506252, 389.950535)"><g><path d="M 7.359375 -2.953125 L 2.625 -2.953125 C 2.625 -2.492188 2.769531 -2.15625 3.0625 -1.9375 C 3.363281 -1.71875 3.691406 -1.609375 4.046875 -1.609375 C 4.410156 -1.609375 4.695312 -1.65625 4.90625 -1.75 C 5.125 -1.84375 5.367188 -2.035156 5.640625 -2.328125 L 7.265625 -1.515625 C 6.585938 -0.378906 5.457031 0.1875 3.875 0.1875 C 2.894531 0.1875 2.050781 -0.144531 1.34375 -0.8125 C 0.644531 -1.488281 0.296875 -2.300781 0.296875 -3.25 C 0.296875 -4.207031 0.644531 -5.023438 1.34375 -5.703125 C 2.050781 -6.378906 2.894531 -6.71875 3.875 -6.71875 C 4.914062 -6.71875 5.757812 -6.414062 6.40625 -5.8125 C 7.050781 -5.21875 7.375 -4.363281 7.375 -3.25 C 7.375 -3.101562 7.367188 -3.003906 7.359375 -2.953125 Z M 2.703125 -4.203125 L 5.171875 -4.203125 C 5.117188 -4.535156 4.984375 -4.789062 4.765625 -4.96875 C 4.554688 -5.15625 4.28125 -5.25 3.9375 -5.25 C 3.570312 -5.25 3.273438 -5.148438 3.046875 -4.953125 C 2.828125 -4.765625 2.710938 -4.515625 2.703125 -4.203125 Z M 2.703125 -4.203125 "/></g></g></g><g fill="#000000" fill-opacity="1"><g transform="translate(209.176882, 389.950535)"><g><path d="M 0.765625 0 L 0.765625 -6.53125 L 3.015625 -6.53125 L 3.015625 -5.84375 L 3.046875 -5.84375 C 3.628906 -6.425781 4.25 -6.71875 4.90625 -6.71875 C 5.226562 -6.71875 5.546875 -6.675781 5.859375 -6.59375 C 6.179688 -6.507812 6.488281 -6.375 6.78125 -6.1875 C 7.070312 -6.007812 7.304688 -5.757812 7.484375 -5.4375 C 7.671875 -5.113281 7.765625 -4.734375 7.765625 -4.296875 L 7.765625 0 L 5.515625 0 L 5.515625 -3.6875 C 5.515625 -4.03125 5.40625 -4.328125 5.1875 -4.578125 C 4.976562 -4.828125 4.695312 -4.953125 4.34375 -4.953125 C 4.007812 -4.953125 3.703125 -4.820312 3.421875 -4.5625 C 3.148438 -4.300781 3.015625 -4.007812 3.015625 -3.6875 L 3.015625 0 Z M 0.765625 0 "/></g></g></g><g fill="#000000" fill-opacity="1"><g transform="translate(217.585321, 389.950535)"><g/></g></g><g fill="#000000" fill-opacity="1"><g transform="translate(221.058095, 389.950535)"><g><path d="M 1.203125 -0.8125 C 0.597656 -1.476562 0.296875 -2.289062 0.296875 -3.25 C 0.296875 -4.21875 0.597656 -5.035156 1.203125 -5.703125 C 1.816406 -6.378906 2.59375 -6.71875 3.53125 -6.71875 C 4.394531 -6.71875 5.109375 -6.445312 5.671875 -5.90625 L 5.671875 -10.9375 L 7.921875 -10.9375 L 7.921875 0 L 5.703125 0 L 5.703125 -0.734375 L 5.671875 -0.734375 C 5.109375 -0.117188 4.394531 0.1875 3.53125 0.1875 C 2.59375 0.1875 1.816406 -0.144531 1.203125 -0.8125 Z M 3.125 -4.359375 C 2.832031 -4.078125 2.6875 -3.707031 2.6875 -3.25 C 2.6875 -2.800781 2.820312 -2.4375 3.09375 -2.15625 C 3.375 -1.875 3.742188 -1.734375 4.203125 -1.734375 C 4.648438 -1.734375 5.015625 -1.875 5.296875 -2.15625 C 5.578125 -2.445312 5.71875 -2.8125 5.71875 -3.25 C 5.71875 -3.707031 5.570312 -4.078125 5.28125 -4.359375 C 4.988281 -4.648438 4.628906 -4.796875 4.203125 -4.796875 C 3.773438 -4.796875 3.414062 -4.648438 3.125 -4.359375 Z M 3.125 -4.359375 "/></g></g></g><g fill="#000000" fill-opacity="1"><g transform="translate(229.746388, 389.950535)"><g><path d="M 1.375 -0.78125 C 0.65625 -1.425781 0.296875 -2.25 0.296875 -3.25 C 0.296875 -4.257812 0.671875 -5.085938 1.421875 -5.734375 C 2.179688 -6.390625 3.113281 -6.71875 4.21875 -6.71875 C 5.3125 -6.71875 6.234375 -6.390625 6.984375 -5.734375 C 7.734375 -5.078125 8.109375 -4.25 8.109375 -3.25 C 8.109375 -2.25 7.742188 -1.425781 7.015625 -0.78125 C 6.285156 -0.132812 5.351562 0.1875 4.21875 0.1875 C 3.050781 0.1875 2.101562 -0.132812 1.375 -0.78125 Z M 3.125 -4.359375 C 2.832031 -4.078125 2.6875 -3.707031 2.6875 -3.25 C 2.6875 -2.800781 2.820312 -2.4375 3.09375 -2.15625 C 3.375 -1.875 3.742188 -1.734375 4.203125 -1.734375 C 4.648438 -1.734375 5.015625 -1.875 5.296875 -2.15625 C 5.578125 -2.445312 5.71875 -2.8125 5.71875 -3.25 C 5.71875 -3.707031 5.570312 -4.078125 5.28125 -4.359375 C 4.988281 -4.648438 4.628906 -4.796875 4.203125 -4.796875 C 3.773438 -4.796875 3.414062 -4.648438 3.125 -4.359375 Z M 3.125 -4.359375 "/></g></g></g><g fill="#000000" fill-opacity="1"><g transform="translate(238.154827, 389.950535)"><g><path d="M 7.359375 -2.953125 L 2.625 -2.953125 C 2.625 -2.492188 2.769531 -2.15625 3.0625 -1.9375 C 3.363281 -1.71875 3.691406 -1.609375 4.046875 -1.609375 C 4.410156 -1.609375 4.695312 -1.65625 4.90625 -1.75 C 5.125 -1.84375 5.367188 -2.035156 5.640625 -2.328125 L 7.265625 -1.515625 C 6.585938 -0.378906 5.457031 0.1875 3.875 0.1875 C 2.894531 0.1875 2.050781 -0.144531 1.34375 -0.8125 C 0.644531 -1.488281 0.296875 -2.300781 0.296875 -3.25 C 0.296875 -4.207031 0.644531 -5.023438 1.34375 -5.703125 C 2.050781 -6.378906 2.894531 -6.71875 3.875 -6.71875 C 4.914062 -6.71875 5.757812 -6.414062 6.40625 -5.8125 C 7.050781 -5.21875 7.375 -4.363281 7.375 -3.25 C 7.375 -3.101562 7.367188 -3.003906 7.359375 -2.953125 Z M 2.703125 -4.203125 L 5.171875 -4.203125 C 5.117188 -4.535156 4.984375 -4.789062 4.765625 -4.96875 C 4.554688 -5.15625 4.28125 -5.25 3.9375 -5.25 C 3.570312 -5.25 3.273438 -5.148438 3.046875 -4.953125 C 2.828125 -4.765625 2.710938 -4.515625 2.703125 -4.203125 Z M 2.703125 -4.203125 "/></g></g></g><g fill="#000000" fill-opacity="1"><g transform="translate(245.825457, 389.950535)"><g><path d="M 3.59375 -6.71875 C 3.96875 -6.71875 4.335938 -6.675781 4.703125 -6.59375 C 5.066406 -6.507812 5.335938 -6.421875 5.515625 -6.328125 L 5.78125 -6.203125 L 5.046875 -4.734375 C 4.535156 -5.003906 4.050781 -5.140625 3.59375 -5.140625 C 3.34375 -5.140625 3.164062 -5.109375 3.0625 -5.046875 C 2.957031 -4.992188 2.90625 -4.894531 2.90625 -4.75 C 2.90625 -4.707031 2.90625 -4.671875 2.90625 -4.640625 C 2.914062 -4.609375 2.929688 -4.578125 2.953125 -4.546875 C 2.984375 -4.515625 3.007812 -4.488281 3.03125 -4.46875 C 3.050781 -4.445312 3.085938 -4.421875 3.140625 -4.390625 C 3.191406 -4.367188 3.234375 -4.351562 3.265625 -4.34375 C 3.296875 -4.332031 3.34375 -4.3125 3.40625 -4.28125 C 3.476562 -4.257812 3.53125 -4.238281 3.5625 -4.21875 C 3.59375 -4.207031 3.648438 -4.191406 3.734375 -4.171875 C 3.816406 -4.148438 3.878906 -4.132812 3.921875 -4.125 C 4.179688 -4.039062 4.40625 -3.953125 4.59375 -3.859375 C 4.789062 -3.773438 5 -3.648438 5.21875 -3.484375 C 5.4375 -3.328125 5.601562 -3.125 5.71875 -2.875 C 5.84375 -2.625 5.90625 -2.34375 5.90625 -2.03125 C 5.90625 -0.550781 4.875 0.1875 2.8125 0.1875 C 2.34375 0.1875 1.898438 0.117188 1.484375 -0.015625 C 1.066406 -0.160156 0.765625 -0.304688 0.578125 -0.453125 L 0.296875 -0.6875 L 1.203125 -2.21875 C 1.273438 -2.164062 1.363281 -2.097656 1.46875 -2.015625 C 1.582031 -1.929688 1.78125 -1.816406 2.0625 -1.671875 C 2.351562 -1.535156 2.609375 -1.46875 2.828125 -1.46875 C 3.285156 -1.46875 3.515625 -1.628906 3.515625 -1.953125 C 3.515625 -2.085938 3.457031 -2.195312 3.34375 -2.28125 C 3.226562 -2.363281 3.023438 -2.453125 2.734375 -2.546875 C 2.453125 -2.648438 2.234375 -2.75 2.078125 -2.84375 C 1.671875 -3.050781 1.347656 -3.285156 1.109375 -3.546875 C 0.867188 -3.816406 0.75 -4.171875 0.75 -4.609375 C 0.75 -5.273438 1.003906 -5.789062 1.515625 -6.15625 C 2.035156 -6.53125 2.726562 -6.71875 3.59375 -6.71875 Z M 3.59375 -6.71875 "/></g></g></g><g fill="#000000" fill-opacity="1"><g transform="translate(252.084081, 389.950535)"><g/></g></g><g fill="#000000" fill-opacity="1"><g transform="translate(255.556855, 389.950535)"><g><path d="M 1.203125 -0.8125 C 0.597656 -1.476562 0.296875 -2.289062 0.296875 -3.25 C 0.296875 -4.21875 0.597656 -5.035156 1.203125 -5.703125 C 1.816406 -6.378906 2.59375 -6.71875 3.53125 -6.71875 C 4.394531 -6.71875 5.109375 -6.445312 5.671875 -5.90625 L 5.671875 -6.53125 L 7.921875 -6.53125 L 7.921875 0 L 5.703125 0 L 5.703125 -0.734375 L 5.671875 -0.734375 C 5.109375 -0.117188 4.394531 0.1875 3.53125 0.1875 C 2.59375 0.1875 1.816406 -0.144531 1.203125 -0.8125 Z M 3.125 -4.359375 C 2.832031 -4.078125 2.6875 -3.707031 2.6875 -3.25 C 2.6875 -2.800781 2.820312 -2.4375 3.09375 -2.15625 C 3.375 -1.875 3.742188 -1.734375 4.203125 -1.734375 C 4.648438 -1.734375 5.015625 -1.875 5.296875 -2.15625 C 5.578125 -2.445312 5.71875 -2.8125 5.71875 -3.25 C 5.71875 -3.707031 5.570312 -4.078125 5.28125 -4.359375 C 4.988281 -4.648438 4.628906 -4.796875 4.203125 -4.796875 C 3.773438 -4.796875 3.414062 -4.648438 3.125 -4.359375 Z M 3.125 -4.359375 "/></g></g></g><g fill="#000000" fill-opacity="1"><g transform="translate(264.245147, 389.950535)"><g/></g></g><g fill="#000000" fill-opacity="1"><g transform="translate(267.717921, 389.950535)"><g><path d="M 4.234375 -4.875 C 3.804688 -4.875 3.441406 -4.71875 3.140625 -4.40625 C 2.835938 -4.09375 2.6875 -3.710938 2.6875 -3.265625 C 2.6875 -2.816406 2.835938 -2.4375 3.140625 -2.125 C 3.441406 -1.8125 3.804688 -1.65625 4.234375 -1.65625 C 4.441406 -1.65625 4.632812 -1.679688 4.8125 -1.734375 C 5 -1.785156 5.132812 -1.832031 5.21875 -1.875 L 5.328125 -1.953125 L 6.09375 -0.390625 C 6.03125 -0.347656 5.945312 -0.296875 5.84375 -0.234375 C 5.738281 -0.171875 5.492188 -0.0859375 5.109375 0.015625 C 4.734375 0.128906 4.332031 0.1875 3.90625 0.1875 C 2.945312 0.1875 2.101562 -0.144531 1.375 -0.8125 C 0.65625 -1.488281 0.296875 -2.300781 0.296875 -3.25 C 0.296875 -4.195312 0.65625 -5.007812 1.375 -5.6875 C 2.101562 -6.375 2.945312 -6.71875 3.90625 -6.71875 C 4.332031 -6.71875 4.726562 -6.664062 5.09375 -6.5625 C 5.457031 -6.457031 5.71875 -6.351562 5.875 -6.25 L 6.09375 -6.109375 L 5.328125 -4.5625 C 5.046875 -4.769531 4.679688 -4.875 4.234375 -4.875 Z M 4.234375 -4.875 "/></g></g></g><g fill="#000000" fill-opacity="1"><g transform="translate(273.963824, 389.950535)"><g><path d="M 1.375 -0.78125 C 0.65625 -1.425781 0.296875 -2.25 0.296875 -3.25 C 0.296875 -4.257812 0.671875 -5.085938 1.421875 -5.734375 C 2.179688 -6.390625 3.113281 -6.71875 4.21875 -6.71875 C 5.3125 -6.71875 6.234375 -6.390625 6.984375 -5.734375 C 7.734375 -5.078125 8.109375 -4.25 8.109375 -3.25 C 8.109375 -2.25 7.742188 -1.425781 7.015625 -0.78125 C 6.285156 -0.132812 5.351562 0.1875 4.21875 0.1875 C 3.050781 0.1875 2.101562 -0.132812 1.375 -0.78125 Z M 3.125 -4.359375 C 2.832031 -4.078125 2.6875 -3.707031 2.6875 -3.25 C 2.6875 -2.800781 2.820312 -2.4375 3.09375 -2.15625 C 3.375 -1.875 3.742188 -1.734375 4.203125 -1.734375 C 4.648438 -1.734375 5.015625 -1.875 5.296875 -2.15625 C 5.578125 -2.445312 5.71875 -2.8125 5.71875 -3.25 C 5.71875 -3.707031 5.570312 -4.078125 5.28125 -4.359375 C 4.988281 -4.648438 4.628906 -4.796875 4.203125 -4.796875 C 3.773438 -4.796875 3.414062 -4.648438 3.125 -4.359375 Z M 3.125 -4.359375 "/></g></g></g><g fill="#000000" fill-opacity="1"><g transform="translate(282.372263, 389.950535)"><g><path d="M 0.765625 0 L 0.765625 -6.53125 L 3.015625 -6.53125 L 3.015625 -5.84375 L 3.046875 -5.84375 C 3.628906 -6.425781 4.25 -6.71875 4.90625 -6.71875 C 5.382812 -6.71875 5.832031 -6.617188 6.25 -6.421875 C 6.664062 -6.222656 6.976562 -5.921875 7.1875 -5.515625 C 7.84375 -6.316406 8.5625 -6.71875 9.34375 -6.71875 C 10.039062 -6.71875 10.640625 -6.519531 11.140625 -6.125 C 11.640625 -5.738281 11.890625 -5.128906 11.890625 -4.296875 L 11.890625 0 L 9.640625 0 L 9.640625 -3.6875 C 9.640625 -4.03125 9.539062 -4.316406 9.34375 -4.546875 C 9.15625 -4.785156 8.875 -4.90625 8.5 -4.90625 C 8.164062 -4.90625 7.910156 -4.804688 7.734375 -4.609375 C 7.566406 -4.410156 7.472656 -4.171875 7.453125 -3.890625 L 7.453125 0 L 5.203125 0 L 5.203125 -3.6875 C 5.203125 -4.03125 5.101562 -4.316406 4.90625 -4.546875 C 4.71875 -4.785156 4.4375 -4.90625 4.0625 -4.90625 C 3.707031 -4.90625 3.441406 -4.796875 3.265625 -4.578125 C 3.097656 -4.367188 3.015625 -4.113281 3.015625 -3.8125 L 3.015625 0 Z M 0.765625 0 "/></g></g></g><g fill="#000000" fill-opacity="1"><g transform="translate(294.902224, 389.950535)"><g><path d="M 7.46875 -5.71875 C 8.082031 -5.050781 8.390625 -4.234375 8.390625 -3.265625 C 8.390625 -2.296875 8.082031 -1.476562 7.46875 -0.8125 C 6.863281 -0.144531 6.09375 0.1875 5.15625 0.1875 C 4.289062 0.1875 3.578125 -0.0820312 3.015625 -0.625 L 3.015625 3.3125 L 0.765625 3.3125 L 0.765625 -6.53125 L 2.984375 -6.53125 L 2.984375 -5.78125 L 3.015625 -5.78125 C 3.578125 -6.40625 4.289062 -6.71875 5.15625 -6.71875 C 6.09375 -6.71875 6.863281 -6.382812 7.46875 -5.71875 Z M 5.5625 -2.15625 C 5.851562 -2.445312 6 -2.816406 6 -3.265625 C 6 -3.710938 5.859375 -4.078125 5.578125 -4.359375 C 5.296875 -4.648438 4.929688 -4.796875 4.484375 -4.796875 C 4.035156 -4.796875 3.671875 -4.648438 3.390625 -4.359375 C 3.109375 -4.078125 2.96875 -3.710938 2.96875 -3.265625 C 2.96875 -2.816406 3.113281 -2.445312 3.40625 -2.15625 C 3.695312 -1.875 4.054688 -1.734375 4.484375 -1.734375 C 4.910156 -1.734375 5.269531 -1.875 5.5625 -2.15625 Z M 5.5625 -2.15625 "/></g></g></g><g fill="#000000" fill-opacity="1"><g transform="translate(303.590516, 389.950535)"><g><path d="M 1.203125 -0.8125 C 0.597656 -1.476562 0.296875 -2.289062 0.296875 -3.25 C 0.296875 -4.21875 0.597656 -5.035156 1.203125 -5.703125 C 1.816406 -6.378906 2.59375 -6.71875 3.53125 -6.71875 C 4.394531 -6.71875 5.109375 -6.445312 5.671875 -5.90625 L 5.671875 -6.53125 L 7.921875 -6.53125 L 7.921875 0 L 5.703125 0 L 5.703125 -0.734375 L 5.671875 -0.734375 C 5.109375 -0.117188 4.394531 0.1875 3.53125 0.1875 C 2.59375 0.1875 1.816406 -0.144531 1.203125 -0.8125 Z M 3.125 -4.359375 C 2.832031 -4.078125 2.6875 -3.707031 2.6875 -3.25 C 2.6875 -2.800781 2.820312 -2.4375 3.09375 -2.15625 C 3.375 -1.875 3.742188 -1.734375 4.203125 -1.734375 C 4.648438 -1.734375 5.015625 -1.875 5.296875 -2.15625 C 5.578125 -2.445312 5.71875 -2.8125 5.71875 -3.25 C 5.71875 -3.707031 5.570312 -4.078125 5.28125 -4.359375 C 4.988281 -4.648438 4.628906 -4.796875 4.203125 -4.796875 C 3.773438 -4.796875 3.414062 -4.648438 3.125 -4.359375 Z M 3.125 -4.359375 "/></g></g></g><g fill="#000000" fill-opacity="1"><g transform="translate(312.278809, 389.950535)"><g><path d="M 0.765625 0 L 0.765625 -6.53125 L 3.015625 -6.53125 L 3.015625 -5.84375 L 3.046875 -5.84375 C 3.628906 -6.425781 4.25 -6.71875 4.90625 -6.71875 C 5.226562 -6.71875 5.546875 -6.675781 5.859375 -6.59375 C 6.179688 -6.507812 6.488281 -6.375 6.78125 -6.1875 C 7.070312 -6.007812 7.304688 -5.757812 7.484375 -5.4375 C 7.671875 -5.113281 7.765625 -4.734375 7.765625 -4.296875 L 7.765625 0 L 5.515625 0 L 5.515625 -3.6875 C 5.515625 -4.03125 5.40625 -4.328125 5.1875 -4.578125 C 4.976562 -4.828125 4.695312 -4.953125 4.34375 -4.953125 C 4.007812 -4.953125 3.703125 -4.820312 3.421875 -4.5625 C 3.148438 -4.300781 3.015625 -4.007812 3.015625 -3.6875 L 3.015625 0 Z M 0.765625 0 "/></g></g></g><g fill="#000000" fill-opacity="1"><g transform="translate(320.687248, 389.950535)"><g><path d="M 5.703125 -6.53125 L 8.3125 -6.53125 L 3.171875 3.3125 L 0.578125 3.3125 L 2.84375 -1.015625 L -0.25 -6.53125 L 2.34375 -6.53125 L 4.15625 -3.171875 Z M 5.703125 -6.53125 "/></g></g></g><g fill="#000000" fill-opacity="1"><g transform="translate(328.739494, 389.950535)"><g/></g></g><g fill="#000000" fill-opacity="1"><g transform="translate(332.212268, 389.950535)"><g><path d="M 1.203125 -0.8125 C 0.597656 -1.476562 0.296875 -2.296875 0.296875 -3.265625 C 0.296875 -4.234375 0.597656 -5.050781 1.203125 -5.71875 C 1.816406 -6.382812 2.59375 -6.71875 3.53125 -6.71875 C 4.394531 -6.71875 5.109375 -6.40625 5.671875 -5.78125 L 5.703125 -5.78125 L 5.703125 -6.53125 L 7.921875 -6.53125 L 7.921875 3.3125 L 5.671875 3.3125 L 5.671875 -0.625 C 5.109375 -0.0820312 4.394531 0.1875 3.53125 0.1875 C 2.59375 0.1875 1.816406 -0.144531 1.203125 -0.8125 Z M 3.09375 -4.359375 C 2.820312 -4.078125 2.6875 -3.710938 2.6875 -3.265625 C 2.6875 -2.816406 2.832031 -2.445312 3.125 -2.15625 C 3.414062 -1.875 3.773438 -1.734375 4.203125 -1.734375 C 4.628906 -1.734375 4.988281 -1.875 5.28125 -2.15625 C 5.570312 -2.445312 5.71875 -2.816406 5.71875 -3.265625 C 5.71875 -3.710938 5.578125 -4.078125 5.296875 -4.359375 C 5.015625 -4.648438 4.648438 -4.796875 4.203125 -4.796875 C 3.742188 -4.796875 3.375 -4.648438 3.09375 -4.359375 Z M 3.09375 -4.359375 "/></g></g></g><g fill="#000000" fill-opacity="1"><g transform="translate(340.90056, 389.950535)"><g><path d="M 2.890625 -6.53125 L 2.890625 -3.421875 C 2.890625 -2.773438 2.984375 -2.316406 3.171875 -2.046875 C 3.367188 -1.773438 3.703125 -1.640625 4.171875 -1.640625 C 4.640625 -1.640625 4.96875 -1.773438 5.15625 -2.046875 C 5.351562 -2.316406 5.453125 -2.773438 5.453125 -3.421875 L 5.453125 -6.53125 L 7.703125 -6.53125 L 7.703125 -2.875 C 7.703125 -1.789062 7.421875 -1.007812 6.859375 -0.53125 C 6.296875 -0.0507812 5.398438 0.1875 4.171875 0.1875 C 2.941406 0.1875 2.046875 -0.0507812 1.484375 -0.53125 C 0.921875 -1.007812 0.640625 -1.789062 0.640625 -2.875 L 0.640625 -6.53125 Z M 2.890625 -6.53125 "/></g></g></g><g fill="#000000" fill-opacity="1"><g transform="translate(349.245401, 389.950535)"><g><path d="M 1.203125 -0.8125 C 0.597656 -1.476562 0.296875 -2.289062 0.296875 -3.25 C 0.296875 -4.21875 0.597656 -5.035156 1.203125 -5.703125 C 1.816406 -6.378906 2.59375 -6.71875 3.53125 -6.71875 C 4.394531 -6.71875 5.109375 -6.445312 5.671875 -5.90625 L 5.671875 -6.53125 L 7.921875 -6.53125 L 7.921875 0 L 5.703125 0 L 5.703125 -0.734375 L 5.671875 -0.734375 C 5.109375 -0.117188 4.394531 0.1875 3.53125 0.1875 C 2.59375 0.1875 1.816406 -0.144531 1.203125 -0.8125 Z M 3.125 -4.359375 C 2.832031 -4.078125 2.6875 -3.707031 2.6875 -3.25 C 2.6875 -2.800781 2.820312 -2.4375 3.09375 -2.15625 C 3.375 -1.875 3.742188 -1.734375 4.203125 -1.734375 C 4.648438 -1.734375 5.015625 -1.875 5.296875 -2.15625 C 5.578125 -2.445312 5.71875 -2.8125 5.71875 -3.25 C 5.71875 -3.707031 5.570312 -4.078125 5.28125 -4.359375 C 4.988281 -4.648438 4.628906 -4.796875 4.203125 -4.796875 C 3.773438 -4.796875 3.414062 -4.648438 3.125 -4.359375 Z M 3.125 -4.359375 "/></g></g></g><g fill="#000000" fill-opacity="1"><g transform="translate(357.933694, 389.950535)"><g><path d="M 0.765625 0 L 0.765625 -10.9375 L 3.015625 -10.9375 L 3.015625 0 Z M 0.765625 0 "/></g></g></g><g fill="#000000" fill-opacity="1"><g transform="translate(361.711763, 389.950535)"><g><path d="M 0.96875 -10.15625 C 1.238281 -10.425781 1.554688 -10.5625 1.921875 -10.5625 C 2.285156 -10.5625 2.597656 -10.425781 2.859375 -10.15625 C 3.117188 -9.894531 3.25 -9.582031 3.25 -9.21875 C 3.25 -8.851562 3.117188 -8.539062 2.859375 -8.28125 C 2.597656 -8.019531 2.285156 -7.890625 1.921875 -7.890625 C 1.554688 -7.890625 1.238281 -8.019531 0.96875 -8.28125 C 0.707031 -8.539062 0.578125 -8.851562 0.578125 -9.21875 C 0.578125 -9.582031 0.707031 -9.894531 0.96875 -10.15625 Z M 0.765625 -6.53125 L 0.765625 0 L 3.015625 0 L 3.015625 -6.53125 Z M 0.765625 -6.53125 "/></g></g></g><g fill="#000000" fill-opacity="1"><g transform="translate(365.553431, 389.950535)"><g><path d="M 1.140625 -6.53125 L 1.140625 -7.90625 C 1.148438 -8.882812 1.378906 -9.664062 1.828125 -10.25 C 2.273438 -10.832031 2.898438 -11.125 3.703125 -11.125 C 4.035156 -11.125 4.359375 -11.078125 4.671875 -10.984375 C 4.984375 -10.890625 5.207031 -10.789062 5.34375 -10.6875 L 5.5625 -10.546875 L 4.765625 -8.953125 C 4.566406 -9.066406 4.34375 -9.125 4.09375 -9.125 C 3.8125 -9.125 3.625 -9.03125 3.53125 -8.84375 C 3.4375 -8.65625 3.390625 -8.320312 3.390625 -7.84375 L 3.390625 -6.53125 L 4.890625 -6.53125 L 4.890625 -4.8125 L 3.390625 -4.8125 L 3.390625 0 L 1.140625 0 L 1.140625 -4.8125 L 0.203125 -4.8125 L 0.203125 -6.53125 Z M 1.140625 -6.53125 "/></g></g></g><g fill="#000000" fill-opacity="1"><g transform="translate(370.323728, 389.950535)"><g><path d="M 5.703125 -6.53125 L 8.3125 -6.53125 L 3.171875 3.3125 L 0.578125 3.3125 L 2.84375 -1.015625 L -0.25 -6.53125 L 2.34375 -6.53125 L 4.15625 -3.171875 Z M 5.703125 -6.53125 "/></g></g></g><g fill="#000000" fill-opacity="1"><g transform="translate(378.375973, 389.950535)"><g/></g></g><g fill="#000000" fill-opacity="1"><g transform="translate(381.848748, 389.950535)"><g><path d="M 1.140625 -6.53125 L 1.140625 -7.90625 C 1.148438 -8.882812 1.378906 -9.664062 1.828125 -10.25 C 2.273438 -10.832031 2.898438 -11.125 3.703125 -11.125 C 4.035156 -11.125 4.359375 -11.078125 4.671875 -10.984375 C 4.984375 -10.890625 5.207031 -10.789062 5.34375 -10.6875 L 5.5625 -10.546875 L 4.765625 -8.953125 C 4.566406 -9.066406 4.34375 -9.125 4.09375 -9.125 C 3.8125 -9.125 3.625 -9.03125 3.53125 -8.84375 C 3.4375 -8.65625 3.390625 -8.320312 3.390625 -7.84375 L 3.390625 -6.53125 L 4.890625 -6.53125 L 4.890625 -4.8125 L 3.390625 -4.8125 L 3.390625 0 L 1.140625 0 L 1.140625 -4.8125 L 0.203125 -4.8125 L 0.203125 -6.53125 Z M 1.140625 -6.53125 "/></g></g></g><g fill="#000000" fill-opacity="1"><g transform="translate(386.619044, 389.950535)"><g><path d="M 1.375 -0.78125 C 0.65625 -1.425781 0.296875 -2.25 0.296875 -3.25 C 0.296875 -4.257812 0.671875 -5.085938 1.421875 -5.734375 C 2.179688 -6.390625 3.113281 -6.71875 4.21875 -6.71875 C 5.3125 -6.71875 6.234375 -6.390625 6.984375 -5.734375 C 7.734375 -5.078125 8.109375 -4.25 8.109375 -3.25 C 8.109375 -2.25 7.742188 -1.425781 7.015625 -0.78125 C 6.285156 -0.132812 5.351562 0.1875 4.21875 0.1875 C 3.050781 0.1875 2.101562 -0.132812 1.375 -0.78125 Z M 3.125 -4.359375 C 2.832031 -4.078125 2.6875 -3.707031 2.6875 -3.25 C 2.6875 -2.800781 2.820312 -2.4375 3.09375 -2.15625 C 3.375 -1.875 3.742188 -1.734375 4.203125 -1.734375 C 4.648438 -1.734375 5.015625 -1.875 5.296875 -2.15625 C 5.578125 -2.445312 5.71875 -2.8125 5.71875 -3.25 C 5.71875 -3.707031 5.570312 -4.078125 5.28125 -4.359375 C 4.988281 -4.648438 4.628906 -4.796875 4.203125 -4.796875 C 3.773438 -4.796875 3.414062 -4.648438 3.125 -4.359375 Z M 3.125 -4.359375 "/></g></g></g><g fill="#000000" fill-opacity="1"><g transform="translate(395.027484, 389.950535)"><g><path d="M 0.765625 0 L 0.765625 -6.53125 L 3.015625 -6.53125 L 3.015625 -5.578125 L 3.046875 -5.578125 C 3.054688 -5.617188 3.078125 -5.660156 3.109375 -5.703125 C 3.148438 -5.753906 3.234375 -5.84375 3.359375 -5.96875 C 3.492188 -6.101562 3.632812 -6.21875 3.78125 -6.3125 C 3.925781 -6.414062 4.113281 -6.507812 4.34375 -6.59375 C 4.570312 -6.675781 4.800781 -6.71875 5.03125 -6.71875 C 5.28125 -6.71875 5.523438 -6.679688 5.765625 -6.609375 C 6.003906 -6.546875 6.175781 -6.476562 6.28125 -6.40625 L 6.46875 -6.3125 L 5.515625 -4.40625 C 5.234375 -4.632812 4.84375 -4.75 4.34375 -4.75 C 4.070312 -4.75 3.835938 -4.691406 3.640625 -4.578125 C 3.453125 -4.460938 3.316406 -4.316406 3.234375 -4.140625 C 3.148438 -3.972656 3.09375 -3.828125 3.0625 -3.703125 C 3.03125 -3.585938 3.015625 -3.5 3.015625 -3.4375 L 3.015625 0 Z M 0.765625 0 "/></g></g></g><g fill="#000000" fill-opacity="1"><g transform="translate(401.362428, 389.950535)"><g/></g></g><g fill="#000000" fill-opacity="1"><g transform="translate(404.835202, 389.950535)"><g><path d="M 1.203125 -0.8125 C 0.597656 -1.476562 0.296875 -2.289062 0.296875 -3.25 C 0.296875 -4.21875 0.597656 -5.035156 1.203125 -5.703125 C 1.816406 -6.378906 2.59375 -6.71875 3.53125 -6.71875 C 4.394531 -6.71875 5.109375 -6.445312 5.671875 -5.90625 L 5.671875 -6.53125 L 7.921875 -6.53125 L 7.921875 0 L 5.703125 0 L 5.703125 -0.734375 L 5.671875 -0.734375 C 5.109375 -0.117188 4.394531 0.1875 3.53125 0.1875 C 2.59375 0.1875 1.816406 -0.144531 1.203125 -0.8125 Z M 3.125 -4.359375 C 2.832031 -4.078125 2.6875 -3.707031 2.6875 -3.25 C 2.6875 -2.800781 2.820312 -2.4375 3.09375 -2.15625 C 3.375 -1.875 3.742188 -1.734375 4.203125 -1.734375 C 4.648438 -1.734375 5.015625 -1.875 5.296875 -2.15625 C 5.578125 -2.445312 5.71875 -2.8125 5.71875 -3.25 C 5.71875 -3.707031 5.570312 -4.078125 5.28125 -4.359375 C 4.988281 -4.648438 4.628906 -4.796875 4.203125 -4.796875 C 3.773438 -4.796875 3.414062 -4.648438 3.125 -4.359375 Z M 3.125 -4.359375 "/></g></g></g><g fill="#000000" fill-opacity="1"><g transform="translate(413.523494, 389.950535)"><g/></g></g><g fill="#000000" fill-opacity="1"><g transform="translate(416.996283, 389.950535)"><g><path d="M 7.46875 -5.71875 C 8.082031 -5.050781 8.390625 -4.234375 8.390625 -3.265625 C 8.390625 -2.296875 8.082031 -1.476562 7.46875 -0.8125 C 6.863281 -0.144531 6.09375 0.1875 5.15625 0.1875 C 4.289062 0.1875 3.578125 -0.0820312 3.015625 -0.625 L 3.015625 3.3125 L 0.765625 3.3125 L 0.765625 -6.53125 L 2.984375 -6.53125 L 2.984375 -5.78125 L 3.015625 -5.78125 C 3.578125 -6.40625 4.289062 -6.71875 5.15625 -6.71875 C 6.09375 -6.71875 6.863281 -6.382812 7.46875 -5.71875 Z M 5.5625 -2.15625 C 5.851562 -2.445312 6 -2.816406 6 -3.265625 C 6 -3.710938 5.859375 -4.078125 5.578125 -4.359375 C 5.296875 -4.648438 4.929688 -4.796875 4.484375 -4.796875 C 4.035156 -4.796875 3.671875 -4.648438 3.390625 -4.359375 C 3.109375 -4.078125 2.96875 -3.710938 2.96875 -3.265625 C 2.96875 -2.816406 3.113281 -2.445312 3.40625 -2.15625 C 3.695312 -1.875 4.054688 -1.734375 4.484375 -1.734375 C 4.910156 -1.734375 5.269531 -1.875 5.5625 -2.15625 Z M 5.5625 -2.15625 "/></g></g></g><g fill="#000000" fill-opacity="1"><g transform="translate(425.68459, 389.950535)"><g><path d="M 0.765625 0 L 0.765625 -10.9375 L 3.015625 -10.9375 L 3.015625 -5.84375 L 3.046875 -5.84375 C 3.628906 -6.425781 4.25 -6.71875 4.90625 -6.71875 C 5.226562 -6.71875 5.546875 -6.675781 5.859375 -6.59375 C 6.179688 -6.507812 6.488281 -6.375 6.78125 -6.1875 C 7.070312 -6.007812 7.304688 -5.757812 7.484375 -5.4375 C 7.671875 -5.113281 7.765625 -4.734375 7.765625 -4.296875 L 7.765625 0 L 5.515625 0 L 5.515625 -3.6875 C 5.515625 -4.03125 5.40625 -4.328125 5.1875 -4.578125 C 4.976562 -4.828125 4.695312 -4.953125 4.34375 -4.953125 C 4.007812 -4.953125 3.703125 -4.820312 3.421875 -4.5625 C 3.148438 -4.300781 3.015625 -4.007812 3.015625 -3.6875 L 3.015625 0 Z M 0.765625 0 "/></g></g></g><g fill="#000000" fill-opacity="1"><g transform="translate(434.093044, 389.950535)"><g><path d="M 1.203125 -0.8125 C 0.597656 -1.476562 0.296875 -2.289062 0.296875 -3.25 C 0.296875 -4.21875 0.597656 -5.035156 1.203125 -5.703125 C 1.816406 -6.378906 2.59375 -6.71875 3.53125 -6.71875 C 4.394531 -6.71875 5.109375 -6.445312 5.671875 -5.90625 L 5.671875 -6.53125 L 7.921875 -6.53125 L 7.921875 0 L 5.703125 0 L 5.703125 -0.734375 L 5.671875 -0.734375 C 5.109375 -0.117188 4.394531 0.1875 3.53125 0.1875 C 2.59375 0.1875 1.816406 -0.144531 1.203125 -0.8125 Z M 3.125 -4.359375 C 2.832031 -4.078125 2.6875 -3.707031 2.6875 -3.25 C 2.6875 -2.800781 2.820312 -2.4375 3.09375 -2.15625 C 3.375 -1.875 3.742188 -1.734375 4.203125 -1.734375 C 4.648438 -1.734375 5.015625 -1.875 5.296875 -2.15625 C 5.578125 -2.445312 5.71875 -2.8125 5.71875 -3.25 C 5.71875 -3.707031 5.570312 -4.078125 5.28125 -4.359375 C 4.988281 -4.648438 4.628906 -4.796875 4.203125 -4.796875 C 3.773438 -4.796875 3.414062 -4.648438 3.125 -4.359375 Z M 3.125 -4.359375 "/></g></g></g><g fill="#000000" fill-opacity="1"><g transform="translate(442.781352, 389.950535)"><g><path d="M 3.59375 -6.71875 C 3.96875 -6.71875 4.335938 -6.675781 4.703125 -6.59375 C 5.066406 -6.507812 5.335938 -6.421875 5.515625 -6.328125 L 5.78125 -6.203125 L 5.046875 -4.734375 C 4.535156 -5.003906 4.050781 -5.140625 3.59375 -5.140625 C 3.34375 -5.140625 3.164062 -5.109375 3.0625 -5.046875 C 2.957031 -4.992188 2.90625 -4.894531 2.90625 -4.75 C 2.90625 -4.707031 2.90625 -4.671875 2.90625 -4.640625 C 2.914062 -4.609375 2.929688 -4.578125 2.953125 -4.546875 C 2.984375 -4.515625 3.007812 -4.488281 3.03125 -4.46875 C 3.050781 -4.445312 3.085938 -4.421875 3.140625 -4.390625 C 3.191406 -4.367188 3.234375 -4.351562 3.265625 -4.34375 C 3.296875 -4.332031 3.34375 -4.3125 3.40625 -4.28125 C 3.476562 -4.257812 3.53125 -4.238281 3.5625 -4.21875 C 3.59375 -4.207031 3.648438 -4.191406 3.734375 -4.171875 C 3.816406 -4.148438 3.878906 -4.132812 3.921875 -4.125 C 4.179688 -4.039062 4.40625 -3.953125 4.59375 -3.859375 C 4.789062 -3.773438 5 -3.648438 5.21875 -3.484375 C 5.4375 -3.328125 5.601562 -3.125 5.71875 -2.875 C 5.84375 -2.625 5.90625 -2.34375 5.90625 -2.03125 C 5.90625 -0.550781 4.875 0.1875 2.8125 0.1875 C 2.34375 0.1875 1.898438 0.117188 1.484375 -0.015625 C 1.066406 -0.160156 0.765625 -0.304688 0.578125 -0.453125 L 0.296875 -0.6875 L 1.203125 -2.21875 C 1.273438 -2.164062 1.363281 -2.097656 1.46875 -2.015625 C 1.582031 -1.929688 1.78125 -1.816406 2.0625 -1.671875 C 2.351562 -1.535156 2.609375 -1.46875 2.828125 -1.46875 C 3.285156 -1.46875 3.515625 -1.628906 3.515625 -1.953125 C 3.515625 -2.085938 3.457031 -2.195312 3.34375 -2.28125 C 3.226562 -2.363281 3.023438 -2.453125 2.734375 -2.546875 C 2.453125 -2.648438 2.234375 -2.75 2.078125 -2.84375 C 1.671875 -3.050781 1.347656 -3.285156 1.109375 -3.546875 C 0.867188 -3.816406 0.75 -4.171875 0.75 -4.609375 C 0.75 -5.273438 1.003906 -5.789062 1.515625 -6.15625 C 2.035156 -6.53125 2.726562 -6.71875 3.59375 -6.71875 Z M 3.59375 -6.71875 "/></g></g></g><g fill="#000000" fill-opacity="1"><g transform="translate(449.039968, 389.950535)"><g><path d="M 7.359375 -2.953125 L 2.625 -2.953125 C 2.625 -2.492188 2.769531 -2.15625 3.0625 -1.9375 C 3.363281 -1.71875 3.691406 -1.609375 4.046875 -1.609375 C 4.410156 -1.609375 4.695312 -1.65625 4.90625 -1.75 C 5.125 -1.84375 5.367188 -2.035156 5.640625 -2.328125 L 7.265625 -1.515625 C 6.585938 -0.378906 5.457031 0.1875 3.875 0.1875 C 2.894531 0.1875 2.050781 -0.144531 1.34375 -0.8125 C 0.644531 -1.488281 0.296875 -2.300781 0.296875 -3.25 C 0.296875 -4.207031 0.644531 -5.023438 1.34375 -5.703125 C 2.050781 -6.378906 2.894531 -6.71875 3.875 -6.71875 C 4.914062 -6.71875 5.757812 -6.414062 6.40625 -5.8125 C 7.050781 -5.21875 7.375 -4.363281 7.375 -3.25 C 7.375 -3.101562 7.367188 -3.003906 7.359375 -2.953125 Z M 2.703125 -4.203125 L 5.171875 -4.203125 C 5.117188 -4.535156 4.984375 -4.789062 4.765625 -4.96875 C 4.554688 -5.15625 4.28125 -5.25 3.9375 -5.25 C 3.570312 -5.25 3.273438 -5.148438 3.046875 -4.953125 C 2.828125 -4.765625 2.710938 -4.515625 2.703125 -4.203125 Z M 2.703125 -4.203125 "/></g></g></g><g fill="#000000" fill-opacity="1"><g transform="translate(456.710605, 389.950535)"><g/></g></g><g fill="#000000" fill-opacity="1"><g transform="translate(460.183364, 389.950535)"><g><path d="M 1.375 -0.78125 C 0.65625 -1.425781 0.296875 -2.25 0.296875 -3.25 C 0.296875 -4.257812 0.671875 -5.085938 1.421875 -5.734375 C 2.179688 -6.390625 3.113281 -6.71875 4.21875 -6.71875 C 5.3125 -6.71875 6.234375 -6.390625 6.984375 -5.734375 C 7.734375 -5.078125 8.109375 -4.25 8.109375 -3.25 C 8.109375 -2.25 7.742188 -1.425781 7.015625 -0.78125 C 6.285156 -0.132812 5.351562 0.1875 4.21875 0.1875 C 3.050781 0.1875 2.101562 -0.132812 1.375 -0.78125 Z M 3.125 -4.359375 C 2.832031 -4.078125 2.6875 -3.707031 2.6875 -3.25 C 2.6875 -2.800781 2.820312 -2.4375 3.09375 -2.15625 C 3.375 -1.875 3.742188 -1.734375 4.203125 -1.734375 C 4.648438 -1.734375 5.015625 -1.875 5.296875 -2.15625 C 5.578125 -2.445312 5.71875 -2.8125 5.71875 -3.25 C 5.71875 -3.707031 5.570312 -4.078125 5.28125 -4.359375 C 4.988281 -4.648438 4.628906 -4.796875 4.203125 -4.796875 C 3.773438 -4.796875 3.414062 -4.648438 3.125 -4.359375 Z M 3.125 -4.359375 "/></g></g></g><g fill="#000000" fill-opacity="1"><g transform="translate(468.591819, 389.950535)"><g><path d="M 1.140625 -6.53125 L 1.140625 -7.90625 C 1.148438 -8.882812 1.378906 -9.664062 1.828125 -10.25 C 2.273438 -10.832031 2.898438 -11.125 3.703125 -11.125 C 4.035156 -11.125 4.359375 -11.078125 4.671875 -10.984375 C 4.984375 -10.890625 5.207031 -10.789062 5.34375 -10.6875 L 5.5625 -10.546875 L 4.765625 -8.953125 C 4.566406 -9.066406 4.34375 -9.125 4.09375 -9.125 C 3.8125 -9.125 3.625 -9.03125 3.53125 -8.84375 C 3.4375 -8.65625 3.390625 -8.320312 3.390625 -7.84375 L 3.390625 -6.53125 L 4.890625 -6.53125 L 4.890625 -4.8125 L 3.390625 -4.8125 L 3.390625 0 L 1.140625 0 L 1.140625 -4.8125 L 0.203125 -4.8125 L 0.203125 -6.53125 Z M 1.140625 -6.53125 "/></g></g></g><g fill="#000000" fill-opacity="1"><g transform="translate(473.36213, 389.950535)"><g/></g></g><g fill="#000000" fill-opacity="1"><g transform="translate(476.83489, 389.950535)"><g><path d="M 1.140625 -6.53125 L 1.140625 -7.90625 C 1.148438 -8.882812 1.378906 -9.664062 1.828125 -10.25 C 2.273438 -10.832031 2.898438 -11.125 3.703125 -11.125 C 4.035156 -11.125 4.359375 -11.078125 4.671875 -10.984375 C 4.984375 -10.890625 5.207031 -10.789062 5.34375 -10.6875 L 5.5625 -10.546875 L 4.765625 -8.953125 C 4.566406 -9.066406 4.34375 -9.125 4.09375 -9.125 C 3.8125 -9.125 3.625 -9.03125 3.53125 -8.84375 C 3.4375 -8.65625 3.390625 -8.320312 3.390625 -7.84375 L 3.390625 -6.53125 L 4.890625 -6.53125 L 4.890625 -4.8125 L 3.390625 -4.8125 L 3.390625 0 L 1.140625 0 L 1.140625 -4.8125 L 0.203125 -4.8125 L 0.203125 -6.53125 Z M 1.140625 -6.53125 "/></g></g></g><g fill="#000000" fill-opacity="1"><g transform="translate(481.605201, 389.950535)"><g><path d="M 2.890625 -6.53125 L 2.890625 -3.421875 C 2.890625 -2.773438 2.984375 -2.316406 3.171875 -2.046875 C 3.367188 -1.773438 3.703125 -1.640625 4.171875 -1.640625 C 4.640625 -1.640625 4.96875 -1.773438 5.15625 -2.046875 C 5.351562 -2.316406 5.453125 -2.773438 5.453125 -3.421875 L 5.453125 -6.53125 L 7.703125 -6.53125 L 7.703125 -2.875 C 7.703125 -1.789062 7.421875 -1.007812 6.859375 -0.53125 C 6.296875 -0.0507812 5.398438 0.1875 4.171875 0.1875 C 2.941406 0.1875 2.046875 -0.0507812 1.484375 -0.53125 C 0.921875 -1.007812 0.640625 -1.789062 0.640625 -2.875 L 0.640625 -6.53125 Z M 2.890625 -6.53125 "/></g></g></g><g fill="#000000" fill-opacity="1"><g transform="translate(489.950042, 389.950535)"><g><path d="M 0.765625 0 L 0.765625 -6.53125 L 3.015625 -6.53125 L 3.015625 -5.84375 L 3.046875 -5.84375 C 3.628906 -6.425781 4.25 -6.71875 4.90625 -6.71875 C 5.226562 -6.71875 5.546875 -6.675781 5.859375 -6.59375 C 6.179688 -6.507812 6.488281 -6.375 6.78125 -6.1875 C 7.070312 -6.007812 7.304688 -5.757812 7.484375 -5.4375 C 7.671875 -5.113281 7.765625 -4.734375 7.765625 -4.296875 L 7.765625 0 L 5.515625 0 L 5.515625 -3.6875 C 5.515625 -4.03125 5.40625 -4.328125 5.1875 -4.578125 C 4.976562 -4.828125 4.695312 -4.953125 4.34375 -4.953125 C 4.007812 -4.953125 3.703125 -4.820312 3.421875 -4.5625 C 3.148438 -4.300781 3.015625 -4.007812 3.015625 -3.6875 L 3.015625 0 Z M 0.765625 0 "/></g></g></g><g fill="#000000" fill-opacity="1"><g transform="translate(498.358496, 389.950535)"><g><path d="M 1.203125 -0.8125 C 0.597656 -1.476562 0.296875 -2.289062 0.296875 -3.25 C 0.296875 -4.21875 0.597656 -5.035156 1.203125 -5.703125 C 1.816406 -6.378906 2.59375 -6.71875 3.53125 -6.71875 C 4.394531 -6.71875 5.109375 -6.445312 5.671875 -5.90625 L 5.671875 -10.9375 L 7.921875 -10.9375 L 7.921875 0 L 5.703125 0 L 5.703125 -0.734375 L 5.671875 -0.734375 C 5.109375 -0.117188 4.394531 0.1875 3.53125 0.1875 C 2.59375 0.1875 1.816406 -0.144531 1.203125 -0.8125 Z M 3.125 -4.359375 C 2.832031 -4.078125 2.6875 -3.707031 2.6875 -3.25 C 2.6875 -2.800781 2.820312 -2.4375 3.09375 -2.15625 C 3.375 -1.875 3.742188 -1.734375 4.203125 -1.734375 C 4.648438 -1.734375 5.015625 -1.875 5.296875 -2.15625 C 5.578125 -2.445312 5.71875 -2.8125 5.71875 -3.25 C 5.71875 -3.707031 5.570312 -4.078125 5.28125 -4.359375 C 4.988281 -4.648438 4.628906 -4.796875 4.203125 -4.796875 C 3.773438 -4.796875 3.414062 -4.648438 3.125 -4.359375 Z M 3.125 -4.359375 "/></g></g></g><g fill="#000000" fill-opacity="1"><g transform="translate(507.046804, 389.950535)"><g><path d="M 0.96875 -10.15625 C 1.238281 -10.425781 1.554688 -10.5625 1.921875 -10.5625 C 2.285156 -10.5625 2.597656 -10.425781 2.859375 -10.15625 C 3.117188 -9.894531 3.25 -9.582031 3.25 -9.21875 C 3.25 -8.851562 3.117188 -8.539062 2.859375 -8.28125 C 2.597656 -8.019531 2.285156 -7.890625 1.921875 -7.890625 C 1.554688 -7.890625 1.238281 -8.019531 0.96875 -8.28125 C 0.707031 -8.539062 0.578125 -8.851562 0.578125 -9.21875 C 0.578125 -9.582031 0.707031 -9.894531 0.96875 -10.15625 Z M 0.765625 -6.53125 L 0.765625 0 L 3.015625 0 L 3.015625 -6.53125 Z M 0.765625 -6.53125 "/></g></g></g><g fill="#000000" fill-opacity="1"><g transform="translate(510.888486, 389.950535)"><g><path d="M 0.765625 0 L 0.765625 -6.53125 L 3.015625 -6.53125 L 3.015625 -5.84375 L 3.046875 -5.84375 C 3.628906 -6.425781 4.25 -6.71875 4.90625 -6.71875 C 5.226562 -6.71875 5.546875 -6.675781 5.859375 -6.59375 C 6.179688 -6.507812 6.488281 -6.375 6.78125 -6.1875 C 7.070312 -6.007812 7.304688 -5.757812 7.484375 -5.4375 C 7.671875 -5.113281 7.765625 -4.734375 7.765625 -4.296875 L 7.765625 0 L 5.515625 0 L 5.515625 -3.6875 C 5.515625 -4.03125 5.40625 -4.328125 5.1875 -4.578125 C 4.976562 -4.828125 4.695312 -4.953125 4.34375 -4.953125 C 4.007812 -4.953125 3.703125 -4.820312 3.421875 -4.5625 C 3.148438 -4.300781 3.015625 -4.007812 3.015625 -3.6875 L 3.015625 0 Z M 0.765625 0 "/></g></g></g><g fill="#000000" fill-opacity="1"><g transform="translate(519.296941, 389.950535)"><g><path d="M 0.46875 1.609375 L 2.3125 0.703125 C 2.65625 1.253906 3.242188 1.53125 4.078125 1.53125 C 4.472656 1.53125 4.835938 1.40625 5.171875 1.15625 C 5.503906 0.90625 5.671875 0.523438 5.671875 0.015625 L 5.671875 -0.46875 C 5.273438 -0.03125 4.5625 0.1875 3.53125 0.1875 C 2.59375 0.1875 1.816406 -0.144531 1.203125 -0.8125 C 0.597656 -1.476562 0.296875 -2.289062 0.296875 -3.25 C 0.296875 -4.21875 0.597656 -5.035156 1.203125 -5.703125 C 1.816406 -6.378906 2.59375 -6.71875 3.53125 -6.71875 C 4.375 -6.71875 5.078125 -6.457031 5.640625 -5.9375 L 5.671875 -5.9375 L 5.671875 -6.53125 L 7.921875 -6.53125 L 7.921875 0.171875 C 7.921875 1.234375 7.566406 2.050781 6.859375 2.625 C 6.160156 3.207031 5.234375 3.5 4.078125 3.5 C 2.210938 3.5 1.007812 2.867188 0.46875 1.609375 Z M 3.125 -4.359375 C 2.832031 -4.078125 2.6875 -3.707031 2.6875 -3.25 C 2.6875 -2.800781 2.820312 -2.4375 3.09375 -2.15625 C 3.375 -1.875 3.742188 -1.734375 4.203125 -1.734375 C 4.648438 -1.734375 5.015625 -1.875 5.296875 -2.15625 C 5.578125 -2.445312 5.71875 -2.8125 5.71875 -3.25 C 5.71875 -3.707031 5.570312 -4.078125 5.28125 -4.359375 C 4.988281 -4.648438 4.628906 -4.796875 4.203125 -4.796875 C 3.773438 -4.796875 3.414062 -4.648438 3.125 -4.359375 Z M 3.125 -4.359375 "/></g></g></g><g fill="#000000" fill-opacity="1"><g transform="translate(527.985248, 389.950535)"><g><path d="M 2.15625 -7.375 L 0.296875 -8.28125 C 0.296875 -8.3125 0.316406 -8.398438 0.359375 -8.546875 C 0.410156 -8.703125 0.515625 -8.90625 0.671875 -9.15625 C 0.828125 -9.40625 1.019531 -9.640625 1.25 -9.859375 C 1.488281 -10.078125 1.816406 -10.269531 2.234375 -10.4375 C 2.660156 -10.601562 3.140625 -10.6875 3.671875 -10.6875 C 4.660156 -10.6875 5.507812 -10.394531 6.21875 -9.8125 C 6.925781 -9.238281 7.28125 -8.515625 7.28125 -7.640625 C 7.28125 -6.566406 6.566406 -5.722656 5.140625 -5.109375 C 4.941406 -5.023438 4.816406 -4.910156 4.765625 -4.765625 C 4.710938 -4.617188 4.6875 -4.410156 4.6875 -4.140625 L 4.6875 -3.4375 L 2.59375 -3.4375 L 2.59375 -4.828125 C 2.59375 -5.046875 2.597656 -5.222656 2.609375 -5.359375 C 2.628906 -5.492188 2.6875 -5.640625 2.78125 -5.796875 C 2.875 -5.953125 3.007812 -6.085938 3.1875 -6.203125 C 3.320312 -6.285156 3.503906 -6.382812 3.734375 -6.5 C 3.960938 -6.613281 4.128906 -6.703125 4.234375 -6.765625 C 4.347656 -6.835938 4.453125 -6.945312 4.546875 -7.09375 C 4.640625 -7.25 4.6875 -7.429688 4.6875 -7.640625 C 4.6875 -7.953125 4.585938 -8.203125 4.390625 -8.390625 C 4.191406 -8.585938 3.945312 -8.6875 3.65625 -8.6875 C 3.25 -8.6875 2.921875 -8.550781 2.671875 -8.28125 C 2.421875 -8.019531 2.25 -7.71875 2.15625 -7.375 Z M 3.640625 -2.71875 C 4.046875 -2.71875 4.390625 -2.578125 4.671875 -2.296875 C 4.953125 -2.015625 5.09375 -1.671875 5.09375 -1.265625 C 5.09375 -0.859375 4.953125 -0.515625 4.671875 -0.234375 C 4.390625 0.046875 4.046875 0.1875 3.640625 0.1875 C 3.242188 0.1875 2.898438 0.046875 2.609375 -0.234375 C 2.328125 -0.515625 2.1875 -0.859375 2.1875 -1.265625 C 2.1875 -1.671875 2.328125 -2.015625 2.609375 -2.296875 C 2.898438 -2.578125 3.242188 -2.71875 3.640625 -2.71875 Z M 3.640625 -2.71875 "/></g></g></g></svg>